<?xml version="1.0" encoding="UTF-8" standalone="no"?>
<!DOCTYPE svg PUBLIC "-//W3C//DTD SVG 1.0//EN" "http://www.w3.org/TR/2001/REC-SVG-20010904/DTD/svg10.dtd">

<svg xmlns="http://www.w3.org/2000/svg" xmlns:xlink="http://www.w3.org/1999/xlink" width="20.24cm" height="14.29cm" viewBox="0 0 765 540">
<title></title>
<desc>Created with Enterprise Architect (Build: 1624) 2</desc>

<g style="fill:#FFFFFF;fill-opacity:1.00;">
	 <rect x="0" y="0" width="765" height="540" shape-rendering="auto"/>
</g><g style="stroke-width:1;stroke-linecap:round;stroke-linejoin:bevel; fill:#FFFFFF;fill-opacity:1.00; stroke:#000000; stroke-opacity:1.00">
  <polygon points="10 32 150 32 150 100 10 100 10 32" shape-rendering="auto"   style="fill-rule:evenodd;"/>
  <polygon points="10 10 115 10 115 32 10 32 10 10" shape-rendering="auto"   style="fill-rule:evenodd;"/>
</g>
<g style="stroke-width:1;stroke-linecap:round;stroke-linejoin:bevel; fill:#000000;fill-opacity:1.00; stroke:#000000; stroke-opacity:0.00">
	<text x="15.00" y="25.00" textLength="77" style="font-family:Carlito; font-weight:700; font-style:normal; font-size:9pt; fill:#000000;fill-opacity:1.00; stroke:#000000; stroke-opacity:0.00 stroke-width:0; white-space: pre;" xml:space="preserve" transform="rotate(-0.00 15.00 25.00)">建築物モデル</text>
</g>
<g style="stroke-width:1;stroke-linecap:round;stroke-linejoin:bevel; fill:#FFFFFF;fill-opacity:1.00; stroke:#000000; stroke-opacity:1.00">
  <polygon points="10 242 187 242 187 310 10 310 10 242" shape-rendering="auto"   style="fill-rule:evenodd;"/>
  <polygon points="10 220 172 220 172 242 10 242 10 220" shape-rendering="auto"   style="fill-rule:evenodd;"/>
</g>
<g style="stroke-width:1;stroke-linecap:round;stroke-linejoin:bevel; fill:#000000;fill-opacity:1.00; stroke:#000000; stroke-opacity:0.00">
	<text x="15.00" y="235.00" textLength="147" style="font-family:Carlito; font-weight:700; font-style:normal; font-size:9pt; fill:#000000;fill-opacity:1.00; stroke:#000000; stroke-opacity:0.00 stroke-width:0; white-space: pre;" xml:space="preserve" transform="rotate(-0.00 15.00 235.00)">都市計画決定情報モデル</text>
</g>
<g style="stroke-width:1;stroke-linecap:round;stroke-linejoin:bevel; fill:#FFFFFF;fill-opacity:1.00; stroke:#000000; stroke-opacity:1.00">
  <polygon points="10 341 178 341 178 409 10 409 10 341" shape-rendering="auto"   style="fill-rule:evenodd;"/>
  <polygon points="10 319 116 319 116 341 10 341 10 319" shape-rendering="auto"   style="fill-rule:evenodd;"/>
</g>
<g style="stroke-width:1;stroke-linecap:round;stroke-linejoin:bevel; fill:#000000;fill-opacity:1.00; stroke:#000000; stroke-opacity:0.00">
	<text x="15.00" y="334.00" textLength="91" style="font-family:Carlito; font-weight:700; font-style:normal; font-size:9pt; fill:#000000;fill-opacity:1.00; stroke:#000000; stroke-opacity:0.00 stroke-width:0; white-space: pre;" xml:space="preserve" transform="rotate(-0.00 15.00 334.00)">都市設備モデル</text>
</g>
<g style="stroke-width:1;stroke-linecap:round;stroke-linejoin:bevel; fill:#FFFFFF;fill-opacity:1.00; stroke:#000000; stroke-opacity:1.00">
  <polygon points="590 352 730 352 730 420 590 420 590 352" shape-rendering="auto"   style="fill-rule:evenodd;"/>
  <polygon points="590 330 695 330 695 352 590 352 590 330" shape-rendering="auto"   style="fill-rule:evenodd;"/>
</g>
<g style="stroke-width:1;stroke-linecap:round;stroke-linejoin:bevel; fill:#000000;fill-opacity:1.00; stroke:#000000; stroke-opacity:0.00">
	<text x="595.00" y="345.00" textLength="63" style="font-family:Carlito; font-weight:700; font-style:normal; font-size:9pt; fill:#000000;fill-opacity:1.00; stroke:#000000; stroke-opacity:0.00 stroke-width:0; white-space: pre;" xml:space="preserve" transform="rotate(-0.00 595.00 345.00)">植生モデル</text>
</g>
<g style="stroke-width:1;stroke-linecap:round;stroke-linejoin:bevel; fill:#FFFFFF;fill-opacity:1.00; stroke:#000000; stroke-opacity:1.00">
  <polygon points="590 142 755 142 755 210 590 210 590 142" shape-rendering="auto"   style="fill-rule:evenodd;"/>
  <polygon points="590 120 698 120 698 142 590 142 590 120" shape-rendering="auto"   style="fill-rule:evenodd;"/>
</g>
<g style="stroke-width:1;stroke-linecap:round;stroke-linejoin:bevel; fill:#000000;fill-opacity:1.00; stroke:#000000; stroke-opacity:0.00">
	<text x="595.00" y="135.00" textLength="93" style="font-family:Carlito; font-weight:700; font-style:normal; font-size:9pt; fill:#000000;fill-opacity:1.00; stroke:#000000; stroke-opacity:0.00 stroke-width:0; white-space: pre;" xml:space="preserve" transform="rotate(-0.00 595.00 135.00)">災害リスクモデル</text>
</g>
<g style="stroke-width:1;stroke-linecap:round;stroke-linejoin:bevel; fill:#FFFFFF;fill-opacity:1.00; stroke:#000000; stroke-opacity:1.00">
  <polygon points="10 462 150 462 150 530 10 530 10 462" shape-rendering="auto"   style="fill-rule:evenodd;"/>
  <polygon points="10 440 115 440 115 462 10 462 10 440" shape-rendering="auto"   style="fill-rule:evenodd;"/>
</g>
<g style="stroke-width:1;stroke-linecap:round;stroke-linejoin:bevel; fill:#000000;fill-opacity:1.00; stroke:#000000; stroke-opacity:0.00">
	<text x="15.00" y="455.00" textLength="63" style="font-family:Carlito; font-weight:700; font-style:normal; font-size:9pt; fill:#000000;fill-opacity:1.00; stroke:#000000; stroke-opacity:0.00 stroke-width:0; white-space: pre;" xml:space="preserve" transform="rotate(-0.00 15.00 455.00)">地形モデル</text>
</g>
<g style="stroke-width:1;stroke-linecap:round;stroke-linejoin:bevel; fill:#FFFFFF;fill-opacity:1.00; stroke:#000000; stroke-opacity:1.00">
  <polygon points="220 32 360 32 360 100 220 100 220 32" shape-rendering="auto"   style="fill-rule:evenodd;"/>
  <polygon points="220 10 342 10 342 32 220 32 220 10" shape-rendering="auto"   style="fill-rule:evenodd;"/>
</g>
<g style="stroke-width:1;stroke-linecap:round;stroke-linejoin:bevel; fill:#000000;fill-opacity:1.00; stroke:#000000; stroke-opacity:0.00">
	<text x="225.00" y="25.00" textLength="107" style="font-family:Carlito; font-weight:700; font-style:normal; font-size:9pt; fill:#000000;fill-opacity:1.00; stroke:#000000; stroke-opacity:0.00 stroke-width:0; white-space: pre;" xml:space="preserve" transform="rotate(-0.00 225.00 25.00)">交通（道路）モデル</text>
</g>
<g style="stroke-width:1;stroke-linecap:round;stroke-linejoin:bevel; fill:#FFFFFF;fill-opacity:1.00; stroke:#000000; stroke-opacity:1.00">
  <polygon points="410 142 550 142 550 210 410 210 410 142" shape-rendering="auto"   style="fill-rule:evenodd;"/>
  <polygon points="410 120 516 120 516 142 410 142 410 120" shape-rendering="auto"   style="fill-rule:evenodd;"/>
</g>
<g style="stroke-width:1;stroke-linecap:round;stroke-linejoin:bevel; fill:#000000;fill-opacity:1.00; stroke:#000000; stroke-opacity:0.00">
	<text x="415.00" y="135.00" textLength="91" style="font-family:Carlito; font-weight:700; font-style:normal; font-size:9pt; fill:#000000;fill-opacity:1.00; stroke:#000000; stroke-opacity:0.00 stroke-width:0; white-space: pre;" xml:space="preserve" transform="rotate(-0.00 415.00 135.00)">土地利用モデル</text>
</g>
<g style="stroke-width:1;stroke-linecap:round;stroke-linejoin:bevel; fill:#FFFFFF;fill-opacity:1.00; stroke:#000000; stroke-opacity:1.00">
  <polygon points="220 242 360 242 360 310 220 310 220 242" shape-rendering="auto"   style="fill-rule:evenodd;"/>
  <polygon points="220 220 325 220 325 242 220 242 220 220" shape-rendering="auto"   style="fill-rule:evenodd;"/>
</g>
<g style="stroke-width:1;stroke-linecap:round;stroke-linejoin:bevel; fill:#000000;fill-opacity:1.00; stroke:#000000; stroke-opacity:0.00">
	<text x="225.00" y="235.00" textLength="63" style="font-family:Carlito; font-weight:700; font-style:normal; font-size:9pt; fill:#000000;fill-opacity:1.00; stroke:#000000; stroke-opacity:0.00 stroke-width:0; white-space: pre;" xml:space="preserve" transform="rotate(-0.00 225.00 235.00)">橋梁モデル</text>
</g>
<g style="stroke-width:1;stroke-linecap:round;stroke-linejoin:bevel; fill:#FFFFFF;fill-opacity:1.00; stroke:#000000; stroke-opacity:1.00">
  <polygon points="410 242 550 242 550 310 410 310 410 242" shape-rendering="auto"   style="fill-rule:evenodd;"/>
  <polygon points="410 220 515 220 515 242 410 242 410 220" shape-rendering="auto"   style="fill-rule:evenodd;"/>
</g>
<g style="stroke-width:1;stroke-linecap:round;stroke-linejoin:bevel; fill:#000000;fill-opacity:1.00; stroke:#000000; stroke-opacity:0.00">
	<text x="415.00" y="235.00" textLength="80" style="font-family:Carlito; font-weight:700; font-style:normal; font-size:9pt; fill:#000000;fill-opacity:1.00; stroke:#000000; stroke-opacity:0.00 stroke-width:0; white-space: pre;" xml:space="preserve" transform="rotate(-0.00 415.00 235.00)">トンネルモデル</text>
</g>
<g style="stroke-width:1;stroke-linecap:round;stroke-linejoin:bevel; fill:#FFFFFF;fill-opacity:1.00; stroke:#000000; stroke-opacity:1.00">
  <polygon points="590 242 746 242 746 310 590 310 590 242" shape-rendering="auto"   style="fill-rule:evenodd;"/>
  <polygon points="590 220 731 220 731 242 590 242 590 220" shape-rendering="auto"   style="fill-rule:evenodd;"/>
</g>
<g style="stroke-width:1;stroke-linecap:round;stroke-linejoin:bevel; fill:#000000;fill-opacity:1.00; stroke:#000000; stroke-opacity:0.00">
	<text x="595.00" y="235.00" textLength="126" style="font-family:Carlito; font-weight:700; font-style:normal; font-size:9pt; fill:#000000;fill-opacity:1.00; stroke:#000000; stroke-opacity:0.00 stroke-width:0; white-space: pre;" xml:space="preserve" transform="rotate(-0.00 595.00 235.00)">その他の構造物モデル</text>
</g>
<g style="stroke-width:1;stroke-linecap:round;stroke-linejoin:bevel; fill:#FFFFFF;fill-opacity:1.00; stroke:#000000; stroke-opacity:1.00">
  <polygon points="410 352 550 352 550 420 410 420 410 352" shape-rendering="auto"   style="fill-rule:evenodd;"/>
  <polygon points="410 330 515 330 515 352 410 352 410 330" shape-rendering="auto"   style="fill-rule:evenodd;"/>
</g>
<g style="stroke-width:1;stroke-linecap:round;stroke-linejoin:bevel; fill:#000000;fill-opacity:1.00; stroke:#000000; stroke-opacity:0.00">
	<text x="415.00" y="345.00" textLength="77" style="font-family:Carlito; font-weight:700; font-style:normal; font-size:9pt; fill:#000000;fill-opacity:1.00; stroke:#000000; stroke-opacity:0.00 stroke-width:0; white-space: pre;" xml:space="preserve" transform="rotate(-0.00 415.00 345.00)">地下街モデル</text>
</g>
<g style="stroke-width:1;stroke-linecap:round;stroke-linejoin:bevel; fill:#FFFFFF;fill-opacity:1.00; stroke:#000000; stroke-opacity:1.00">
  <polygon points="220 352 360 352 360 420 220 420 220 352" shape-rendering="auto"   style="fill-rule:evenodd;"/>
  <polygon points="220 330 340 330 340 352 220 352 220 330" shape-rendering="auto"   style="fill-rule:evenodd;"/>
</g>
<g style="stroke-width:1;stroke-linecap:round;stroke-linejoin:bevel; fill:#000000;fill-opacity:1.00; stroke:#000000; stroke-opacity:0.00">
	<text x="225.00" y="345.00" textLength="105" style="font-family:Carlito; font-weight:700; font-style:normal; font-size:9pt; fill:#000000;fill-opacity:1.00; stroke:#000000; stroke-opacity:0.00 stroke-width:0; white-space: pre;" xml:space="preserve" transform="rotate(-0.00 225.00 345.00)">地下埋設物モデル</text>
</g>
<g style="stroke-width:1;stroke-linecap:round;stroke-linejoin:bevel; fill:#FFFFFF;fill-opacity:1.00; stroke:#000000; stroke-opacity:1.00">
  <polygon points="410 32 550 32 550 100 410 100 410 32" shape-rendering="auto"   style="fill-rule:evenodd;"/>
  <polygon points="410 10 532 10 532 32 410 32 410 10" shape-rendering="auto"   style="fill-rule:evenodd;"/>
</g>
<g style="stroke-width:1;stroke-linecap:round;stroke-linejoin:bevel; fill:#000000;fill-opacity:1.00; stroke:#000000; stroke-opacity:0.00">
	<text x="415.00" y="25.00" textLength="107" style="font-family:Carlito; font-weight:700; font-style:normal; font-size:9pt; fill:#000000;fill-opacity:1.00; stroke:#000000; stroke-opacity:0.00 stroke-width:0; white-space: pre;" xml:space="preserve" transform="rotate(-0.00 415.00 25.00)">交通（鉄道）モデル</text>
</g>
<g style="stroke-width:1;stroke-linecap:round;stroke-linejoin:bevel; fill:#FFFFFF;fill-opacity:1.00; stroke:#000000; stroke-opacity:1.00">
  <polygon points="590 32 743 32 743 100 590 100 590 32" shape-rendering="auto"   style="fill-rule:evenodd;"/>
  <polygon points="590 10 726 10 726 32 590 32 590 10" shape-rendering="auto"   style="fill-rule:evenodd;"/>
</g>
<g style="stroke-width:1;stroke-linecap:round;stroke-linejoin:bevel; fill:#000000;fill-opacity:1.00; stroke:#000000; stroke-opacity:0.00">
	<text x="595.00" y="25.00" textLength="121" style="font-family:Carlito; font-weight:700; font-style:normal; font-size:9pt; fill:#000000;fill-opacity:1.00; stroke:#000000; stroke-opacity:0.00 stroke-width:0; white-space: pre;" xml:space="preserve" transform="rotate(-0.00 595.00 25.00)">交通（徒歩道）モデル</text>
</g>
<g style="stroke-width:1;stroke-linecap:round;stroke-linejoin:bevel; fill:#FFFFFF;fill-opacity:1.00; stroke:#000000; stroke-opacity:1.00">
  <polygon points="10 142 150 142 150 210 10 210 10 142" shape-rendering="auto"   style="fill-rule:evenodd;"/>
  <polygon points="10 120 132 120 132 142 10 142 10 120" shape-rendering="auto"   style="fill-rule:evenodd;"/>
</g>
<g style="stroke-width:1;stroke-linecap:round;stroke-linejoin:bevel; fill:#000000;fill-opacity:1.00; stroke:#000000; stroke-opacity:0.00">
	<text x="15.00" y="135.00" textLength="107" style="font-family:Carlito; font-weight:700; font-style:normal; font-size:9pt; fill:#000000;fill-opacity:1.00; stroke:#000000; stroke-opacity:0.00 stroke-width:0; white-space: pre;" xml:space="preserve" transform="rotate(-0.00 15.00 135.00)">交通（広場）モデル</text>
</g>
<g style="stroke-width:1;stroke-linecap:round;stroke-linejoin:bevel; fill:#FFFFFF;fill-opacity:1.00; stroke:#000000; stroke-opacity:1.00">
  <polygon points="220 142 360 142 360 210 220 210 220 142" shape-rendering="auto"   style="fill-rule:evenodd;"/>
  <polygon points="220 120 342 120 342 142 220 142 220 120" shape-rendering="auto"   style="fill-rule:evenodd;"/>
</g>
<g style="stroke-width:1;stroke-linecap:round;stroke-linejoin:bevel; fill:#000000;fill-opacity:1.00; stroke:#000000; stroke-opacity:0.00">
	<text x="225.00" y="135.00" textLength="107" style="font-family:Carlito; font-weight:700; font-style:normal; font-size:9pt; fill:#000000;fill-opacity:1.00; stroke:#000000; stroke-opacity:0.00 stroke-width:0; white-space: pre;" xml:space="preserve" transform="rotate(-0.00 225.00 135.00)">交通（航路）モデル</text>
</g>
<g style="stroke-width:1;stroke-linecap:round;stroke-linejoin:bevel; fill:#FFFFFF;fill-opacity:1.00; stroke:#000000; stroke-opacity:1.00">
  <polygon points="220 462 360 462 360 530 220 530 220 462" shape-rendering="auto"   style="fill-rule:evenodd;"/>
  <polygon points="220 440 325 440 325 462 220 462 220 440" shape-rendering="auto"   style="fill-rule:evenodd;"/>
</g>
<g style="stroke-width:1;stroke-linecap:round;stroke-linejoin:bevel; fill:#000000;fill-opacity:1.00; stroke:#000000; stroke-opacity:0.00">
	<text x="225.00" y="455.00" textLength="63" style="font-family:Carlito; font-weight:700; font-style:normal; font-size:9pt; fill:#000000;fill-opacity:1.00; stroke:#000000; stroke-opacity:0.00 stroke-width:0; white-space: pre;" xml:space="preserve" transform="rotate(-0.00 225.00 455.00)">水部モデル</text>
</g>
<g style="stroke-width:1;stroke-linecap:round;stroke-linejoin:bevel; fill:#FFFFFF;fill-opacity:1.00; stroke:#000000; stroke-opacity:1.00">
  <polygon points="410 462 550 462 550 530 410 530 410 462" shape-rendering="auto"   style="fill-rule:evenodd;"/>
  <polygon points="410 440 515 440 515 462 410 462 410 440" shape-rendering="auto"   style="fill-rule:evenodd;"/>
</g>
<g style="stroke-width:1;stroke-linecap:round;stroke-linejoin:bevel; fill:#000000;fill-opacity:1.00; stroke:#000000; stroke-opacity:0.00">
	<text x="415.00" y="455.00" textLength="63" style="font-family:Carlito; font-weight:700; font-style:normal; font-size:9pt; fill:#000000;fill-opacity:1.00; stroke:#000000; stroke-opacity:0.00 stroke-width:0; white-space: pre;" xml:space="preserve" transform="rotate(-0.00 415.00 455.00)">区域モデル</text>
</g>
</svg>
