<?xml version="1.0" encoding="UTF-8" standalone="no"?>
<!DOCTYPE svg PUBLIC "-//W3C//DTD SVG 1.0//EN" "http://www.w3.org/TR/2001/REC-SVG-20010904/DTD/svg10.dtd">

<svg xmlns="http://www.w3.org/2000/svg" xmlns:xlink="http://www.w3.org/1999/xlink" width="13.34cm" height="7.25cm" viewBox="0 0 504 274">
<title></title>
<desc>Created with Enterprise Architect (Build: 1624) 2</desc>

<g style="fill:#FFFFFF;fill-opacity:1.00;">
	 <rect x="0" y="0" width="504" height="274" shape-rendering="auto"/>
</g><g style="stroke-width:1;stroke-linecap:round;stroke-linejoin:bevel; fill:#FFFFFF;fill-opacity:1.00; stroke:#000000; stroke-opacity:1.00">
  <path d="M 10 10 C 18 9 26 9 93 10 120 11 147 11 176 9 C 176 13 176 17 176 51 176 64 176 78 177 93 C 169 92 161 92 93 93 66 94 38 94 9 94 Z" shape-rendering="auto"/>
</g>
<g style="stroke-width:1;stroke-linecap:round;stroke-linejoin:bevel; fill:#000000;fill-opacity:1.00; stroke:#000000; stroke-opacity:0.00">
	<text x="70.00" y="29.00" textLength="43" style="font-family:Source Sans Pro; font-weight:700; font-style:italic; font-size:7pt; fill:#000000;fill-opacity:1.00; stroke:#000000; stroke-opacity:0.00 stroke-width:0; white-space: pre;" xml:space="preserve" transform="rotate(-0.00 70.00 29.00)">Concept A</text>
</g>
<g style="stroke-width:1;stroke-linecap:round;stroke-linejoin:bevel; fill:#000000;fill-opacity:0.00; stroke:#000000; stroke-opacity:1.00">
  <path d="M 10 37 C 18 38 26 38 93 36 120 35 147 35 176 35" shape-rendering="auto"/>
</g>
<g style="stroke-width:1;stroke-linecap:round;stroke-linejoin:bevel; fill:#000000;fill-opacity:1.00; stroke:#000000; stroke-opacity:0.00">
	<text x="20.00" y="62.00" textLength="130" style="font-family:Source Sans Pro; font-weight:0; font-style:italic; font-size:7pt; fill:#000000;fill-opacity:1.00; stroke:#000000; stroke-opacity:0.00 stroke-width:0; white-space: pre;" xml:space="preserve" transform="rotate(-0.00 20.00 62.00)">[Detailed notes that describe the </text>
	<text x="20.00" y="75.00" textLength="36" style="font-family:Source Sans Pro; font-weight:0; font-style:italic; font-size:7pt; fill:#000000;fill-opacity:1.00; stroke:#000000; stroke-opacity:0.00 stroke-width:0; white-space: pre;" xml:space="preserve" transform="rotate(-0.00 20.00 75.00)">concept.]</text>
</g>
<g style="stroke-width:1;stroke-linecap:round;stroke-linejoin:bevel; fill:#FFFFFF;fill-opacity:1.00; stroke:#000000; stroke-opacity:1.00">
  <path d="M 327 11 C 335 12 343 12 410 11 437 10 464 10 493 10 C 493 14 493 18 493 51 493 64 493 78 493 93 C 485 92 477 92 410 93 383 94 355 94 326 93 Z" shape-rendering="auto"/>
</g>
<g style="stroke-width:1;stroke-linecap:round;stroke-linejoin:bevel; fill:#000000;fill-opacity:1.00; stroke:#000000; stroke-opacity:0.00">
	<text x="387.00" y="29.00" textLength="44" style="font-family:Source Sans Pro; font-weight:700; font-style:italic; font-size:7pt; fill:#000000;fill-opacity:1.00; stroke:#000000; stroke-opacity:0.00 stroke-width:0; white-space: pre;" xml:space="preserve" transform="rotate(-0.00 387.00 29.00)">Concept B</text>
</g>
<g style="stroke-width:1;stroke-linecap:round;stroke-linejoin:bevel; fill:#000000;fill-opacity:0.00; stroke:#000000; stroke-opacity:1.00">
  <path d="M 328 36 C 336 37 344 37 410 36 437 35 464 35 493 37" shape-rendering="auto"/>
</g>
<g style="stroke-width:1;stroke-linecap:round;stroke-linejoin:bevel; fill:#000000;fill-opacity:1.00; stroke:#000000; stroke-opacity:0.00">
	<text x="337.00" y="62.00" textLength="130" style="font-family:Source Sans Pro; font-weight:0; font-style:italic; font-size:7pt; fill:#000000;fill-opacity:1.00; stroke:#000000; stroke-opacity:0.00 stroke-width:0; white-space: pre;" xml:space="preserve" transform="rotate(-0.00 337.00 62.00)">[Detailed notes that describe the </text>
	<text x="337.00" y="75.00" textLength="36" style="font-family:Source Sans Pro; font-weight:0; font-style:italic; font-size:7pt; fill:#000000;fill-opacity:1.00; stroke:#000000; stroke-opacity:0.00 stroke-width:0; white-space: pre;" xml:space="preserve" transform="rotate(-0.00 337.00 75.00)">concept.]</text>
</g>
<g style="stroke-width:1;stroke-linecap:round;stroke-linejoin:bevel; fill:#FFFFFF;fill-opacity:1.00; stroke:#000000; stroke-opacity:1.00">
  <path d="M 10 180 C 18 181 26 181 93 180 120 179 147 179 176 181 C 176 185 176 189 176 223 176 236 176 250 176 265 C 168 264 160 264 93 265 66 266 38 266 9 265 Z" shape-rendering="auto"/>
</g>
<g style="stroke-width:1;stroke-linecap:round;stroke-linejoin:bevel; fill:#000000;fill-opacity:1.00; stroke:#000000; stroke-opacity:0.00">
	<text x="70.00" y="199.00" textLength="44" style="font-family:Source Sans Pro; font-weight:700; font-style:italic; font-size:7pt; fill:#000000;fill-opacity:1.00; stroke:#000000; stroke-opacity:0.00 stroke-width:0; white-space: pre;" xml:space="preserve" transform="rotate(-0.00 70.00 199.00)">Concept C</text>
</g>
<g style="stroke-width:1;stroke-linecap:round;stroke-linejoin:bevel; fill:#000000;fill-opacity:0.00; stroke:#000000; stroke-opacity:1.00">
  <path d="M 9 205 C 17 206 25 206 93 205 120 204 148 204 177 206" shape-rendering="auto"/>
</g>
<g style="stroke-width:1;stroke-linecap:round;stroke-linejoin:bevel; fill:#000000;fill-opacity:1.00; stroke:#000000; stroke-opacity:0.00">
	<text x="20.00" y="232.00" textLength="130" style="font-family:Source Sans Pro; font-weight:0; font-style:italic; font-size:7pt; fill:#000000;fill-opacity:1.00; stroke:#000000; stroke-opacity:0.00 stroke-width:0; white-space: pre;" xml:space="preserve" transform="rotate(-0.00 20.00 232.00)">[Detailed notes that describe the </text>
	<text x="20.00" y="245.00" textLength="36" style="font-family:Source Sans Pro; font-weight:0; font-style:italic; font-size:7pt; fill:#000000;fill-opacity:1.00; stroke:#000000; stroke-opacity:0.00 stroke-width:0; white-space: pre;" xml:space="preserve" transform="rotate(-0.00 20.00 245.00)">concept.]</text>
</g>
<g style="stroke-width:1;stroke-linecap:round;stroke-linejoin:bevel; fill:#000000;fill-opacity:0.00; stroke:#000000; stroke-opacity:1.00">
  <path d="M 92 180 C 92 176 92 172 92 138 92 124 92 110 93 95" shape-rendering="auto"/>
  <path d="M 326 53 C 319 52 312 52 252 54 228 55 204 55 178 55" shape-rendering="auto"/>
</g>
<g style="stroke-width:1;stroke-linecap:round;stroke-linejoin:bevel; fill:#FFFFFF;fill-opacity:1.00; stroke:#000000; stroke-opacity:1.00">
  <path d="M 188 48 C 187 48 186 49 176 53 C 177 53 178 54 187 59 C 188 59 189 58 198 54 Z" shape-rendering="auto"/>
</g>
<g style="stroke-width:1;stroke-linecap:round;stroke-linejoin:bevel; fill:#000000;fill-opacity:0.00; stroke:#000000; stroke-opacity:1.00">
  <path d="M 212 47 C 211 47 210 48 197 53 C 198 53 200 54 213 60" shape-rendering="auto"/>
</g>
<g style="stroke-width:1;stroke-linecap:round;stroke-linejoin:bevel; fill:#000000;fill-opacity:1.00; stroke:#000000; stroke-opacity:0.00">
	<text x="302.00" y="73.00" textLength="13" style="font-family:Source Sans Pro; font-weight:0; font-style:italic; font-size:7pt; fill:#000000;fill-opacity:1.00; stroke:#000000; stroke-opacity:0.00 stroke-width:0; white-space: pre;" xml:space="preserve" transform="rotate(-0.00 302.00 73.00)">0..*</text>
	<text x="214.00" y="43.00" textLength="67" style="font-family:Source Sans Pro; font-weight:0; font-style:italic; font-size:7pt; fill:#000000;fill-opacity:1.00; stroke:#000000; stroke-opacity:0.00 stroke-width:0; white-space: pre;" xml:space="preserve" transform="rotate(-0.00 214.00 43.00)">Relationship One</text>
	<text x="190.00" y="76.00" textLength="5" style="font-family:Source Sans Pro; font-weight:0; font-style:italic; font-size:7pt; fill:#000000;fill-opacity:1.00; stroke:#000000; stroke-opacity:0.00 stroke-width:0; white-space: pre;" xml:space="preserve" transform="rotate(-0.00 190.00 76.00)">1</text>
	<text x="103.00" y="168.00" textLength="13" style="font-family:Source Sans Pro; font-weight:0; font-style:italic; font-size:7pt; fill:#000000;fill-opacity:1.00; stroke:#000000; stroke-opacity:0.00 stroke-width:0; white-space: pre;" xml:space="preserve" transform="rotate(-0.00 103.00 168.00)">0..*</text>
	<text x="55.00" y="139.00" textLength="68" style="font-family:Source Sans Pro; font-weight:0; font-style:italic; font-size:7pt; fill:#000000;fill-opacity:1.00; stroke:#000000; stroke-opacity:0.00 stroke-width:0; white-space: pre;" xml:space="preserve" transform="rotate(-0.00 55.00 139.00)">Relationship Two</text>
	<text x="105.00" y="109.00" textLength="5" style="font-family:Source Sans Pro; font-weight:0; font-style:italic; font-size:7pt; fill:#000000;fill-opacity:1.00; stroke:#000000; stroke-opacity:0.00 stroke-width:0; white-space: pre;" xml:space="preserve" transform="rotate(-0.00 105.00 109.00)">1</text>
</g>
</svg>
