<?xml version="1.0" encoding="UTF-8" standalone="no"?>
<!DOCTYPE svg PUBLIC "-//W3C//DTD SVG 1.0//EN" "http://www.w3.org/TR/2001/REC-SVG-20010904/DTD/svg10.dtd">

<svg xmlns="http://www.w3.org/2000/svg" xmlns:xlink="http://www.w3.org/1999/xlink" width="15.93cm" height="2.65cm" viewBox="0 0 602 100">
<title></title>
<desc>Created with Enterprise Architect (Build: 1624) 2</desc>

<g style="fill:#FFFFFF;fill-opacity:1.00;">
	 <rect x="0" y="0" width="602" height="100" shape-rendering="auto"/>
</g><g style="stroke-width:1;stroke-linecap:round;stroke-linejoin:bevel; fill:#FFFFFF;fill-opacity:1.00; stroke:#000000; stroke-opacity:1.00">
  <polygon points="10 29 140 29 140 90 10 90 10 29" shape-rendering="auto"   style="fill-rule:evenodd;"/>
  <polygon points="10 10 115 10 115 29 10 29 10 10" shape-rendering="auto"   style="fill-rule:evenodd;"/>
</g>
<g style="stroke-width:1;stroke-linecap:round;stroke-linejoin:bevel; fill:#000000;fill-opacity:1.00; stroke:#000000; stroke-opacity:0.00">
	<text x="15.00" y="23.00" textLength="46" style="font-family:Cambria; font-weight:700; font-style:normal; font-size:7pt; fill:#000000;fill-opacity:1.00; stroke:#000000; stroke-opacity:0.00 stroke-width:0; white-space: pre;" xml:space="preserve" transform="rotate(-0.00 15.00 23.00)">Package A</text>
</g>
<g style="stroke-width:1;stroke-linecap:square;stroke-linejoin:bevel; fill:#FCF1ED;fill-opacity:1.00; stroke:#B07F40; stroke-opacity:1.00">
  <path d="M 14 33 L 20 33 L 22 37 L 13 37 L 14 33 Z" shape-rendering="auto"/>
 <rect x="13" y="36" width="13" height="9" rx="0.00" shape-rendering="auto"  />
</g>
<g style="stroke-width:1;stroke-linecap:square;stroke-linejoin:bevel; fill:#000000;fill-opacity:1.00; stroke:#000000; stroke-opacity:0.00">
	<text x="33.00" y="44.00" textLength="52" style="font-family:Cambria; font-weight:0; font-style:normal; font-size:7pt; fill:#000000;fill-opacity:1.00; stroke:#000000; stroke-opacity:0.00 stroke-width:0; white-space: pre;" xml:space="preserve" transform="rotate(-0.00 33.00 44.00)">+ Package D</text>
</g>
<g style="stroke-width:1;stroke-linecap:square;stroke-linejoin:bevel; fill:#FCF1ED;fill-opacity:1.00; stroke:#B07F40; stroke-opacity:1.00">
  <path d="M 14 49 L 20 49 L 22 53 L 13 53 L 14 49 Z" shape-rendering="auto"/>
 <rect x="13" y="52" width="13" height="9" rx="0.00" shape-rendering="auto"  />
</g>
<g style="stroke-width:1;stroke-linecap:square;stroke-linejoin:bevel; fill:#000000;fill-opacity:1.00; stroke:#000000; stroke-opacity:0.00">
	<text x="33.00" y="60.00" textLength="51" style="font-family:Cambria; font-weight:0; font-style:normal; font-size:7pt; fill:#000000;fill-opacity:1.00; stroke:#000000; stroke-opacity:0.00 stroke-width:0; white-space: pre;" xml:space="preserve" transform="rotate(-0.00 33.00 60.00)">+ Package E</text>
</g>
<g style="stroke-width:1;stroke-linecap:round;stroke-linejoin:bevel; fill:#FFFFFF;fill-opacity:1.00; stroke:#000000; stroke-opacity:1.00">
  <polygon points="236 29 366 29 366 90 236 90 236 29" shape-rendering="auto"   style="fill-rule:evenodd;"/>
  <polygon points="236 10 341 10 341 29 236 29 236 10" shape-rendering="auto"   style="fill-rule:evenodd;"/>
</g>
<g style="stroke-width:1;stroke-linecap:round;stroke-linejoin:bevel; fill:#000000;fill-opacity:1.00; stroke:#000000; stroke-opacity:0.00">
	<text x="241.00" y="23.00" textLength="46" style="font-family:Cambria; font-weight:700; font-style:normal; font-size:7pt; fill:#000000;fill-opacity:1.00; stroke:#000000; stroke-opacity:0.00 stroke-width:0; white-space: pre;" xml:space="preserve" transform="rotate(-0.00 241.00 23.00)">Package B</text>
</g>
<g style="stroke-width:1;stroke-linecap:square;stroke-linejoin:bevel; fill:#FEFAF5;fill-opacity:1.00; stroke:#577AC1; stroke-opacity:1.00">
 <rect x="240" y="33" width="11" height="14" rx="0.00" shape-rendering="auto"  />
</g>
<g style="stroke-width:1;stroke-linecap:square;stroke-linejoin:bevel; fill:#FFFFFF;fill-opacity:1.00; stroke:#577AC1; stroke-opacity:1.00">
 <rect x="240" y="33" width="11" height="4" rx="0.00" shape-rendering="auto"  />
</g>
<g style="stroke-width:1;stroke-linecap:square;stroke-linejoin:bevel; fill:#000000;fill-opacity:0.00; stroke:#577AC1; stroke-opacity:1.00">
  <path d="M 240 40 L 250 40" shape-rendering="auto"/>
</g>
<g style="stroke-width:1;stroke-linecap:square;stroke-linejoin:bevel; fill:#000000;fill-opacity:0.00; stroke:#EF8585; stroke-opacity:1.00">
  <path d="M 242 38 L 246 38" shape-rendering="auto"/>
  <path d="M 248 38 L 249 38" shape-rendering="auto"/>
</g>
<g style="stroke-width:1;stroke-linecap:square;stroke-linejoin:bevel; fill:#000000;fill-opacity:0.00; stroke:#4D4D4D; stroke-opacity:1.00">
  <path d="M 242 42 L 246 42" shape-rendering="auto"/>
  <path d="M 248 42 L 249 42" shape-rendering="auto"/>
  <path d="M 242 44 L 246 44" shape-rendering="auto"/>
  <path d="M 248 44 L 249 44" shape-rendering="auto"/>
</g>
<g style="stroke-width:1;stroke-linecap:square;stroke-linejoin:bevel; fill:#000000;fill-opacity:1.00; stroke:#000000; stroke-opacity:0.00">
	<text x="259.00" y="44.00" textLength="38" style="font-family:Cambria; font-weight:0; font-style:normal; font-size:7pt; fill:#000000;fill-opacity:1.00; stroke:#000000; stroke-opacity:0.00 stroke-width:0; white-space: pre;" xml:space="preserve" transform="rotate(-0.00 259.00 44.00)">+ Class A</text>
</g>
<g style="stroke-width:1;stroke-linecap:square;stroke-linejoin:bevel; fill:#FEFAF5;fill-opacity:1.00; stroke:#577AC1; stroke-opacity:1.00">
 <rect x="240" y="49" width="11" height="14" rx="0.00" shape-rendering="auto"  />
</g>
<g style="stroke-width:1;stroke-linecap:square;stroke-linejoin:bevel; fill:#FFFFFF;fill-opacity:1.00; stroke:#577AC1; stroke-opacity:1.00">
 <rect x="240" y="49" width="11" height="4" rx="0.00" shape-rendering="auto"  />
</g>
<g style="stroke-width:1;stroke-linecap:square;stroke-linejoin:bevel; fill:#000000;fill-opacity:0.00; stroke:#577AC1; stroke-opacity:1.00">
  <path d="M 240 56 L 250 56" shape-rendering="auto"/>
</g>
<g style="stroke-width:1;stroke-linecap:square;stroke-linejoin:bevel; fill:#000000;fill-opacity:0.00; stroke:#EF8585; stroke-opacity:1.00">
  <path d="M 242 54 L 246 54" shape-rendering="auto"/>
  <path d="M 248 54 L 249 54" shape-rendering="auto"/>
</g>
<g style="stroke-width:1;stroke-linecap:square;stroke-linejoin:bevel; fill:#000000;fill-opacity:0.00; stroke:#4D4D4D; stroke-opacity:1.00">
  <path d="M 242 58 L 246 58" shape-rendering="auto"/>
  <path d="M 248 58 L 249 58" shape-rendering="auto"/>
  <path d="M 242 60 L 246 60" shape-rendering="auto"/>
  <path d="M 248 60 L 249 60" shape-rendering="auto"/>
</g>
<g style="stroke-width:1;stroke-linecap:square;stroke-linejoin:bevel; fill:#000000;fill-opacity:1.00; stroke:#000000; stroke-opacity:0.00">
	<text x="259.00" y="60.00" textLength="38" style="font-family:Cambria; font-weight:0; font-style:normal; font-size:7pt; fill:#000000;fill-opacity:1.00; stroke:#000000; stroke-opacity:0.00 stroke-width:0; white-space: pre;" xml:space="preserve" transform="rotate(-0.00 259.00 60.00)">+ Class B</text>
</g>
<g style="stroke-width:1;stroke-linecap:round;stroke-linejoin:bevel; fill:#FFFFFF;fill-opacity:1.00; stroke:#000000; stroke-opacity:1.00">
  <polygon points="462 29 592 29 592 90 462 90 462 29" shape-rendering="auto"   style="fill-rule:evenodd;"/>
  <polygon points="462 10 567 10 567 29 462 29 462 10" shape-rendering="auto"   style="fill-rule:evenodd;"/>
</g>
<g style="stroke-width:1;stroke-linecap:round;stroke-linejoin:bevel; fill:#000000;fill-opacity:1.00; stroke:#000000; stroke-opacity:0.00">
	<text x="467.00" y="23.00" textLength="45" style="font-family:Cambria; font-weight:700; font-style:normal; font-size:7pt; fill:#000000;fill-opacity:1.00; stroke:#000000; stroke-opacity:0.00 stroke-width:0; white-space: pre;" xml:space="preserve" transform="rotate(-0.00 467.00 23.00)">Package C</text>
</g>
<g style="stroke-width:1;stroke-linecap:square;stroke-linejoin:round; fill:#000000;fill-opacity:0.00; stroke:#000000; stroke-opacity:1.00" stroke-dasharray="6,3">
  <path d="M 462 58 L 366 58 M 462 58" shape-rendering="auto"/>
</g>
<g style="stroke-width:1;stroke-linecap:round;stroke-linejoin:bevel; fill:#000000;fill-opacity:0.00; stroke:#000000; stroke-opacity:1.00">
  <path d="M 447 63 L 462 58 L 447 53" shape-rendering="auto"/>
</g>
<g style="stroke-width:1;stroke-linecap:square;stroke-linejoin:round; fill:#000000;fill-opacity:0.00; stroke:#000000; stroke-opacity:1.00" stroke-dasharray="6,3">
  <path d="M 236 50 L 140 50 M 236 50" shape-rendering="auto"/>
</g>
<g style="stroke-width:1;stroke-linecap:round;stroke-linejoin:bevel; fill:#000000;fill-opacity:0.00; stroke:#000000; stroke-opacity:1.00">
  <path d="M 221 55 L 236 50 L 221 45" shape-rendering="auto"/>
</g>
<g style="stroke-width:1;stroke-linecap:round;stroke-linejoin:bevel; fill:#000000;fill-opacity:1.00; stroke:#000000; stroke-opacity:0.00">
	<text x="169.00" y="63.00" textLength="39" style="font-family:Cambria; font-weight:0; font-style:normal; font-size:7pt; fill:#000000;fill-opacity:1.00; stroke:#000000; stroke-opacity:0.00 stroke-width:0; white-space: pre;" xml:space="preserve" transform="rotate(-0.00 169.00 63.00)">«import»</text>
	<text x="395.00" y="71.00" textLength="39" style="font-family:Cambria; font-weight:0; font-style:normal; font-size:7pt; fill:#000000;fill-opacity:1.00; stroke:#000000; stroke-opacity:0.00 stroke-width:0; white-space: pre;" xml:space="preserve" transform="rotate(-0.00 395.00 71.00)">«import»</text>
</g>
</svg>
