<?xml version="1.0" encoding="UTF-8" standalone="no"?>
<!DOCTYPE svg PUBLIC "-//W3C//DTD SVG 1.0//EN" "http://www.w3.org/TR/2001/REC-SVG-20010904/DTD/svg10.dtd">

<svg xmlns="http://www.w3.org/2000/svg" xmlns:xlink="http://www.w3.org/1999/xlink" width="14.87cm" height="7.25cm" viewBox="0 0 562 274">
<title></title>
<desc>Created with Enterprise Architect (Build: 1624) 2</desc>

<g style="fill:#FFFFFF;fill-opacity:1.00;">
	 <rect x="0" y="0" width="562" height="274" shape-rendering="auto"/>
</g><g style="stroke-width:1;stroke-linecap:round;stroke-linejoin:bevel; fill:#FFFFFF;fill-opacity:1.00; stroke:#000000; stroke-opacity:1.00">
  <polygon points="216 29 346 29 346 90 216 90 216 29" shape-rendering="auto"   style="fill-rule:evenodd;"/>
  <polygon points="216 10 321 10 321 29 216 29 216 10" shape-rendering="auto"   style="fill-rule:evenodd;"/>
</g>
<g style="stroke-width:1;stroke-linecap:round;stroke-linejoin:bevel; fill:#000000;fill-opacity:1.00; stroke:#000000; stroke-opacity:0.00">
	<text x="221.00" y="23.00" textLength="46" style="font-family:Cambria; font-weight:700; font-style:normal; font-size:7pt; fill:#000000;fill-opacity:1.00; stroke:#000000; stroke-opacity:0.00 stroke-width:0; white-space: pre;" xml:space="preserve" transform="rotate(-0.00 221.00 23.00)">Package A</text>
</g>
<g style="stroke-width:1;stroke-linecap:round;stroke-linejoin:bevel; fill:#FFFFFF;fill-opacity:1.00; stroke:#000000; stroke-opacity:1.00">
  <polygon points="10 203 140 203 140 264 10 264 10 203" shape-rendering="auto"   style="fill-rule:evenodd;"/>
  <polygon points="10 184 115 184 115 203 10 203 10 184" shape-rendering="auto"   style="fill-rule:evenodd;"/>
</g>
<g style="stroke-width:1;stroke-linecap:round;stroke-linejoin:bevel; fill:#000000;fill-opacity:1.00; stroke:#000000; stroke-opacity:0.00">
	<text x="15.00" y="197.00" textLength="54" style="font-family:Cambria; font-weight:700; font-style:normal; font-size:7pt; fill:#000000;fill-opacity:1.00; stroke:#000000; stroke-opacity:0.00 stroke-width:0; white-space: pre;" xml:space="preserve" transform="rotate(-0.00 15.00 197.00)">Package A.1</text>
</g>
<g style="stroke-width:1;stroke-linecap:round;stroke-linejoin:bevel; fill:#FFFFFF;fill-opacity:1.00; stroke:#000000; stroke-opacity:1.00">
  <polygon points="216 203 346 203 346 264 216 264 216 203" shape-rendering="auto"   style="fill-rule:evenodd;"/>
  <polygon points="216 184 321 184 321 203 216 203 216 184" shape-rendering="auto"   style="fill-rule:evenodd;"/>
</g>
<g style="stroke-width:1;stroke-linecap:round;stroke-linejoin:bevel; fill:#000000;fill-opacity:1.00; stroke:#000000; stroke-opacity:0.00">
	<text x="221.00" y="197.00" textLength="54" style="font-family:Cambria; font-weight:700; font-style:normal; font-size:7pt; fill:#000000;fill-opacity:1.00; stroke:#000000; stroke-opacity:0.00 stroke-width:0; white-space: pre;" xml:space="preserve" transform="rotate(-0.00 221.00 197.00)">Package A.2</text>
</g>
<g style="stroke-width:1;stroke-linecap:round;stroke-linejoin:bevel; fill:#FFFFFF;fill-opacity:1.00; stroke:#000000; stroke-opacity:1.00">
  <polygon points="422 203 552 203 552 264 422 264 422 203" shape-rendering="auto"   style="fill-rule:evenodd;"/>
  <polygon points="422 184 527 184 527 203 422 203 422 184" shape-rendering="auto"   style="fill-rule:evenodd;"/>
</g>
<g style="stroke-width:1;stroke-linecap:round;stroke-linejoin:bevel; fill:#000000;fill-opacity:1.00; stroke:#000000; stroke-opacity:0.00">
	<text x="427.00" y="197.00" textLength="54" style="font-family:Cambria; font-weight:700; font-style:normal; font-size:7pt; fill:#000000;fill-opacity:1.00; stroke:#000000; stroke-opacity:0.00 stroke-width:0; white-space: pre;" xml:space="preserve" transform="rotate(-0.00 427.00 197.00)">Package A.3</text>
</g>
<g style="stroke-width:1;stroke-linecap:round;stroke-linejoin:bevel; fill:#000000;fill-opacity:0.00; stroke:#000000; stroke-opacity:1.00">
  <path d="M 487 184 L 487 140 L 281 140 L 281 90" shape-rendering="auto"/>
</g>
<g style="stroke-width:1;stroke-linecap:round;stroke-linejoin:bevel; fill:#FFFFFF;fill-opacity:1.00; stroke:#000000; stroke-opacity:1.00">
<ellipse cx="281.00" cy="98.00" rx="8.00" ry="8.00" shape-rendering="auto"  />
</g>
<g style="stroke-width:1;stroke-linecap:round;stroke-linejoin:bevel; fill:#000000;fill-opacity:0.00; stroke:#000000; stroke-opacity:1.00">
  <path d="M 281 90 L 281 106 M 289 98 L 273 98" shape-rendering="auto"/>
  <path d="M 281 184 L 281 140 L 281 90" shape-rendering="auto"/>
</g>
<g style="stroke-width:1;stroke-linecap:round;stroke-linejoin:bevel; fill:#FFFFFF;fill-opacity:1.00; stroke:#000000; stroke-opacity:1.00">
<ellipse cx="281.00" cy="98.00" rx="8.00" ry="8.00" shape-rendering="auto"  />
</g>
<g style="stroke-width:1;stroke-linecap:round;stroke-linejoin:bevel; fill:#000000;fill-opacity:0.00; stroke:#000000; stroke-opacity:1.00">
  <path d="M 281 90 L 281 106 M 289 98 L 273 98" shape-rendering="auto"/>
  <path d="M 75 184 L 75 140 L 281 140 L 281 90" shape-rendering="auto"/>
</g>
<g style="stroke-width:1;stroke-linecap:round;stroke-linejoin:bevel; fill:#FFFFFF;fill-opacity:1.00; stroke:#000000; stroke-opacity:1.00">
<ellipse cx="281.00" cy="98.00" rx="8.00" ry="8.00" shape-rendering="auto"  />
</g>
<g style="stroke-width:1;stroke-linecap:round;stroke-linejoin:bevel; fill:#000000;fill-opacity:0.00; stroke:#000000; stroke-opacity:1.00">
  <path d="M 281 90 L 281 106 M 289 98 L 273 98" shape-rendering="auto"/>
</g>
</svg>
