<?xml version="1.0" encoding="UTF-8" standalone="no"?>
<!DOCTYPE svg PUBLIC "-//W3C//DTD SVG 1.0//EN" "http://www.w3.org/TR/2001/REC-SVG-20010904/DTD/svg10.dtd">

<svg xmlns="http://www.w3.org/2000/svg" xmlns:xlink="http://www.w3.org/1999/xlink" width="16.40cm" height="3.47cm" viewBox="0 0 620 131">
<title></title>
<desc>Created with Enterprise Architect (Build: 1624) 2</desc>

<g style="fill:#FFFFFF;fill-opacity:1.00;">
	 <rect x="0" y="0" width="620" height="131" shape-rendering="auto"/>
</g><g style="stroke-width:1;stroke-linecap:round;stroke-linejoin:bevel; fill:#FFFFFF;fill-opacity:1.00; stroke:#000000; stroke-opacity:1.00">
  <polygon points="10 32 170 32 170 100 10 100 10 32" shape-rendering="auto"   style="fill-rule:evenodd;"/>
  <polygon points="10 10 123 10 123 32 10 32 10 10" shape-rendering="auto"   style="fill-rule:evenodd;"/>
</g>
<g style="stroke-width:1;stroke-linecap:round;stroke-linejoin:bevel; fill:#000000;fill-opacity:1.00; stroke:#000000; stroke-opacity:0.00">
	<text x="15.00" y="25.00" textLength="98" style="font-family:Carlito; font-weight:700; font-style:normal; font-size:9pt; fill:#000000;fill-opacity:1.00; stroke:#000000; stroke-opacity:0.00 stroke-width:0; white-space: pre;" xml:space="preserve" transform="rotate(-0.00 15.00 25.00)">都市計画基本図</text>
</g>
<g style="stroke-width:1;stroke-linecap:round;stroke-linejoin:bevel; fill:#FFFFFF;fill-opacity:1.00; stroke:#000000; stroke-opacity:1.00">
  <polygon points="400 32 610 32 610 100 400 100 400 32" shape-rendering="auto"   style="fill-rule:evenodd;"/>
  <polygon points="400 10 562 10 562 32 400 32 400 10" shape-rendering="auto"   style="fill-rule:evenodd;"/>
</g>
<g style="stroke-width:1;stroke-linecap:round;stroke-linejoin:bevel; fill:#000000;fill-opacity:1.00; stroke:#000000; stroke-opacity:0.00">
	<text x="405.00" y="25.00" textLength="147" style="font-family:Carlito; font-weight:700; font-style:normal; font-size:9pt; fill:#000000;fill-opacity:1.00; stroke:#000000; stroke-opacity:0.00 stroke-width:0; white-space: pre;" xml:space="preserve" transform="rotate(-0.00 405.00 25.00)">都市計画決定情報モデル</text>
	<text x="450.00" y="117.00" textLength="109" style="font-family:Carlito; font-weight:400; font-style:italic; font-size:9pt; fill:#000000;fill-opacity:1.00; stroke:#000000; stroke-opacity:0.00 stroke-width:0; white-space: pre;" xml:space="preserve" transform="rotate(-0.00 450.00 117.00)">(from 3D都市モデル)</text>
</g>
<g style="stroke-width:1;stroke-linecap:round;stroke-linejoin:bevel; fill:#FFFFFF;fill-opacity:1.00; stroke:#000000; stroke-opacity:1.00">
  <polygon points="190 32 380 32 380 100 190 100 190 32" shape-rendering="auto"   style="fill-rule:evenodd;"/>
  <polygon points="190 10 317 10 317 32 190 32 190 10" shape-rendering="auto"   style="fill-rule:evenodd;"/>
</g>
<g style="stroke-width:1;stroke-linecap:round;stroke-linejoin:bevel; fill:#000000;fill-opacity:1.00; stroke:#000000; stroke-opacity:0.00">
	<text x="195.00" y="25.00" textLength="112" style="font-family:Carlito; font-weight:700; font-style:normal; font-size:9pt; fill:#000000;fill-opacity:1.00; stroke:#000000; stroke-opacity:0.00 stroke-width:0; white-space: pre;" xml:space="preserve" transform="rotate(-0.00 195.00 25.00)">都市計画基礎調査</text>
</g>
</svg>
