<svg xmlns="http://www.w3.org/2000/svg" width="900" height="900" viewBox="0 0 900 900"><path d="m165.63,610.17c-.35,0-.71-.09-1.02-.28-.59-.35-.96-.98-.98-1.67l-3.7-143c-.02-.77.4-1.48,1.09-1.83l136.74-69.69c.29-.15.6-.22.91-.22.36,0,.71.09,1.03.28.59.35.96.98.97,1.67l3.27,142.74c.02.77-.4,1.48-1.09,1.83l-136.31,69.96c-.29.15-.6.22-.91.22Z" style="fill:#5b9cd4; stroke-width:0px;"/><path d="m298.66,395.48l3.27,142.74-136.31,69.96-3.7-143,136.74-69.69m0-4c-.62,0-1.24.14-1.82.44l-136.74,69.69c-1.37.7-2.22,2.13-2.18,3.67l3.7,143c.04,1.37.78,2.64,1.96,3.34.63.37,1.33.56,2.04.56.63,0,1.25-.15,1.83-.44l136.31-69.96c1.36-.7,2.21-2.12,2.17-3.65l-3.27-142.74c-.03-1.38-.77-2.64-1.95-3.34-.63-.38-1.34-.57-2.05-.57h0Z" style="fill:#26489e; stroke-width:0px;"/><path d="m425.87,612.82c-.35,0-.7-.09-1.01-.27l-123.94-72.61c-.6-.35-.97-.99-.99-1.68l-3.27-142.74c-.02-.72.36-1.4.98-1.77.31-.19.67-.28,1.02-.28s.69.09,1.01.27l124.31,72.29c.6.35.98.99,1,1.69l2.9,143.06c.01.72-.36,1.4-.99,1.77-.31.18-.66.27-1.01.27Z" style="fill:#5b9cd4; stroke-width:0px;"/><path d="m298.66,395.48l124.31,72.29,2.9,143.06-123.94-72.61-3.27-142.74m0-4c-.7,0-1.41.19-2.03.56-1.25.74-2,2.09-1.96,3.54l3.27,142.74c.03,1.39.78,2.66,1.98,3.36l123.94,72.61c.62.37,1.32.55,2.02.55s1.4-.18,2.02-.55c1.25-.73,2-2.08,1.98-3.53l-2.9-143.06c-.03-1.4-.78-2.68-1.99-3.38l-124.31-72.29c-.62-.36-1.32-.54-2.01-.54h0Z" style="fill:#26489e; stroke-width:0px;"/><path d="m289.46,683.29c-.35,0-.7-.09-1.02-.28l-123.83-73.12c-.63-.37-1-1.05-.98-1.78.02-.73.44-1.39,1.09-1.72l136.31-69.96c.29-.15.6-.22.91-.22.35,0,.7.09,1.01.27l123.94,72.61c.63.37,1.01,1.05.99,1.78-.02.73-.43,1.39-1.08,1.72l-136.41,70.47c-.29.15-.6.22-.92.22Z" style="fill:#dbab3e; stroke-width:0px;"/><path d="m301.93,538.21l123.94,72.61-136.41,70.47-123.83-73.12,136.31-69.96m0-4c-.63,0-1.25.15-1.83.44l-136.31,69.96c-1.3.67-2.13,1.98-2.17,3.44-.04,1.46.71,2.82,1.96,3.56l123.83,73.12c.63.37,1.33.56,2.03.56.63,0,1.26-.15,1.84-.45l136.41-70.47c1.3-.67,2.12-1.99,2.16-3.45s-.72-2.82-1.98-3.56l-123.94-72.61c-.62-.37-1.32-.55-2.02-.55h0Z" style="fill:#26489e; stroke-width:0px;"/><g style="opacity:.68;"><path d="m289.46,683.29c-.35,0-.7-.09-1.02-.28l-123.83-73.12c-.59-.35-.96-.98-.98-1.67l-3.7-143c-.02-.73.36-1.4.98-1.77.31-.19.67-.28,1.02-.28s.7.09,1.01.27l124.2,72.8c.6.35.97.99.99,1.68l3.33,143.33c.02.73-.36,1.4-.99,1.77-.31.18-.66.27-1.01.27Z" style="fill:#feffff; stroke-width:0px;"/><path d="m161.92,465.17l124.2,72.8,3.33,143.33-123.83-73.12-3.7-143m0-4c-.7,0-1.41.19-2.03.56-1.25.74-2,2.1-1.97,3.55l3.7,143c.04,1.38.78,2.64,1.96,3.34l123.83,73.12c.63.37,1.33.56,2.03.56s1.4-.18,2.02-.55c1.25-.73,2.01-2.09,1.98-3.54l-3.33-143.33c-.03-1.39-.78-2.66-1.98-3.36l-124.2-72.8c-.62-.37-1.32-.55-2.02-.55h0Z" style="fill:#26489e; stroke-width:0px;"/></g><g style="opacity:.68;"><path d="m289.46,683.29c-.35,0-.71-.09-1.02-.28-.59-.35-.96-.98-.98-1.67l-3.33-143.33c-.02-.77.4-1.48,1.09-1.83l136.84-70.2c.29-.15.6-.22.91-.22.36,0,.71.09,1.03.28.59.35.96.99.97,1.68l2.9,143.06c.01.76-.4,1.47-1.08,1.82l-136.41,70.47c-.29.15-.6.22-.92.22Z" style="fill:#feffff; stroke-width:0px;"/><path d="m422.97,467.76l2.9,143.06-136.41,70.47-3.33-143.33,136.84-70.2m0-4c-.63,0-1.25.15-1.83.44l-136.84,70.2c-1.36.7-2.21,2.12-2.17,3.65l3.33,143.33c.03,1.38.77,2.64,1.96,3.35.63.37,1.33.56,2.04.56.63,0,1.26-.15,1.84-.45l136.41-70.47c1.36-.7,2.19-2.11,2.16-3.63l-2.9-143.06c-.03-1.38-.76-2.65-1.95-3.35-.63-.38-1.34-.57-2.05-.57h0Z" style="fill:#26489e; stroke-width:0px;"/></g><path d="m165.63,431.12c-.35,0-.71-.09-1.02-.28-.59-.35-.96-.98-.98-1.67l-3.7-143c-.02-.77.4-1.48,1.09-1.83l136.74-69.69c.29-.15.6-.22.91-.22.36,0,.71.09,1.03.28.59.35.96.98.97,1.67l3.27,142.74c.02.77-.4,1.48-1.09,1.83l-136.31,69.96c-.29.15-.6.22-.91.22Z" style="fill:#5b9cd4; stroke-width:0px;"/><path d="m298.66,216.43l3.27,142.74-136.31,69.96-3.7-143,136.74-69.69m0-4c-.62,0-1.24.14-1.82.44l-136.74,69.69c-1.37.7-2.22,2.13-2.18,3.67l3.7,143c.04,1.37.78,2.64,1.96,3.34.63.37,1.33.56,2.04.56.63,0,1.25-.15,1.83-.44l136.31-69.96c1.36-.7,2.21-2.12,2.17-3.65l-3.27-142.74c-.03-1.38-.77-2.64-1.95-3.34-.63-.38-1.34-.57-2.05-.57h0Z" style="fill:#26489e; stroke-width:0px;"/><path d="m425.87,433.77c-.35,0-.7-.09-1.01-.27l-123.94-72.61c-.6-.35-.97-.99-.99-1.68l-3.27-142.74c-.02-.72.36-1.4.98-1.77.31-.19.67-.28,1.02-.28s.69.09,1.01.27l124.31,72.29c.6.35.98.99,1,1.69l2.9,143.06c.01.72-.36,1.4-.99,1.77-.31.18-.66.27-1.01.27Z" style="fill:#5b9cd4; stroke-width:0px;"/><path d="m298.66,216.43l124.31,72.29,2.9,143.06-123.94-72.61-3.27-142.74m0-4c-.7,0-1.41.19-2.03.56-1.25.74-2,2.09-1.96,3.54l3.27,142.74c.03,1.39.78,2.66,1.98,3.36l123.94,72.61c.62.37,1.32.55,2.02.55s1.4-.18,2.02-.55c1.25-.73,2-2.08,1.98-3.53l-2.9-143.06c-.03-1.4-.78-2.68-1.99-3.38l-124.31-72.29c-.62-.36-1.32-.54-2.01-.54h0Z" style="fill:#26489e; stroke-width:0px;"/><path d="m289.46,504.24c-.35,0-.7-.09-1.02-.28l-123.83-73.12c-.63-.37-1-1.05-.98-1.78.02-.73.44-1.39,1.09-1.72l136.31-69.96c.29-.15.6-.22.91-.22.35,0,.7.09,1.01.27l123.94,72.61c.63.37,1.01,1.05.99,1.78-.02.73-.43,1.39-1.08,1.72l-136.41,70.47c-.29.15-.6.22-.92.22Z" style="fill:#dbab3e; stroke-width:0px;"/><path d="m301.93,359.16l123.94,72.61-136.41,70.47-123.83-73.12,136.31-69.96m0-4c-.63,0-1.25.15-1.83.44l-136.31,69.96c-1.3.67-2.13,1.98-2.17,3.44-.04,1.46.71,2.82,1.96,3.56l123.83,73.12c.63.37,1.33.56,2.03.56.63,0,1.26-.15,1.84-.45l136.41-70.47c1.3-.67,2.12-1.99,2.16-3.45s-.72-2.82-1.98-3.56l-123.94-72.61c-.62-.37-1.32-.55-2.02-.55h0Z" style="fill:#26489e; stroke-width:0px;"/><g style="opacity:.68;"><path d="m289.46,504.24c-.35,0-.7-.09-1.02-.28l-123.83-73.12c-.59-.35-.96-.98-.98-1.67l-3.7-143c-.02-.73.36-1.4.98-1.77.31-.19.67-.28,1.02-.28s.7.09,1.01.27l124.2,72.8c.6.35.97.99.99,1.68l3.33,143.33c.02.73-.36,1.4-.99,1.77-.31.18-.66.27-1.01.27Z" style="fill:#feffff; stroke-width:0px;"/><path d="m161.92,286.12l124.2,72.8,3.33,143.33-123.83-73.12-3.7-143m0-4c-.7,0-1.41.19-2.03.56-1.25.74-2,2.1-1.97,3.55l3.7,143c.04,1.38.78,2.64,1.96,3.34l123.83,73.12c.63.37,1.33.56,2.03.56s1.4-.18,2.02-.55c1.25-.73,2.01-2.09,1.98-3.54l-3.33-143.33c-.03-1.39-.78-2.66-1.98-3.36l-124.2-72.8c-.62-.37-1.32-.55-2.02-.55h0Z" style="fill:#26489e; stroke-width:0px;"/></g><g style="opacity:.68;"><path d="m289.46,504.24c-.35,0-.71-.09-1.02-.28-.59-.35-.96-.98-.98-1.67l-3.33-143.33c-.02-.77.4-1.48,1.09-1.83l136.84-70.2c.29-.15.6-.22.91-.22.36,0,.71.09,1.03.28.59.35.96.99.97,1.68l2.9,143.06c.01.76-.4,1.47-1.08,1.82l-136.41,70.47c-.29.15-.6.22-.92.22Z" style="fill:#feffff; stroke-width:0px;"/><path d="m422.97,288.71l2.9,143.06-136.41,70.47-3.33-143.33,136.84-70.2m0-4c-.63,0-1.25.15-1.83.44l-136.84,70.2c-1.36.7-2.21,2.12-2.17,3.65l3.33,143.33c.03,1.38.77,2.64,1.96,3.35.63.37,1.33.56,2.04.56.63,0,1.26-.15,1.84-.45l136.41-70.47c1.36-.7,2.19-2.11,2.16-3.63l-2.9-143.06c-.03-1.38-.76-2.65-1.95-3.35-.63-.38-1.34-.57-2.05-.57h0Z" style="fill:#26489e; stroke-width:0px;"/></g><path d="m323.93,699.94c-.35,0-.71-.09-1.02-.28-.59-.35-.96-.98-.98-1.67l-3.7-143c-.02-.77.4-1.48,1.09-1.83l136.74-69.69c.29-.15.6-.22.91-.22.36,0,.71.09,1.03.28.59.35.96.98.97,1.67l3.27,142.74c.02.77-.4,1.48-1.09,1.83l-136.31,69.96c-.29.15-.6.22-.91.22Z" style="fill:#5b9cd4; stroke-width:0px;"/><path d="m456.96,485.25l3.27,142.74-136.31,69.96-3.7-143,136.74-69.69m0-4c-.62,0-1.24.14-1.82.44l-136.74,69.69c-1.37.7-2.22,2.13-2.18,3.67l3.7,143c.04,1.37.78,2.64,1.96,3.34.63.37,1.33.56,2.04.56.63,0,1.25-.15,1.83-.44l136.31-69.96c1.36-.7,2.21-2.12,2.17-3.65l-3.27-142.74c-.03-1.38-.77-2.64-1.95-3.34-.63-.38-1.34-.57-2.05-.57h0Z" style="fill:#26489e; stroke-width:0px;"/><path d="m584.17,702.59c-.35,0-.7-.09-1.01-.27l-123.94-72.61c-.6-.35-.97-.99-.99-1.68l-3.27-142.74c-.02-.72.36-1.4.98-1.77.31-.19.67-.28,1.02-.28s.69.09,1.01.27l124.31,72.29c.6.35.98.99.99,1.69l2.9,143.06c.01.72-.36,1.4-.99,1.77-.31.18-.66.27-1.01.27Z" style="fill:#5b9cd4; stroke-width:0px;"/><path d="m456.96,485.25l124.31,72.29,2.9,143.06-123.94-72.61-3.27-142.74m0-4c-.7,0-1.41.19-2.03.56-1.25.74-2,2.09-1.96,3.54l3.27,142.74c.03,1.39.78,2.66,1.98,3.36l123.94,72.61c.62.37,1.32.55,2.02.55s1.4-.18,2.02-.55c1.25-.73,2-2.08,1.98-3.53l-2.9-143.06c-.03-1.4-.78-2.68-1.99-3.38l-124.31-72.29c-.62-.36-1.32-.54-2.01-.54h0Z" style="fill:#26489e; stroke-width:0px;"/><path d="m447.76,773.06c-.35,0-.7-.09-1.02-.28l-123.83-73.12c-.63-.37-1-1.05-.98-1.78.02-.73.44-1.39,1.09-1.72l136.31-69.96c.29-.15.6-.22.91-.22.35,0,.7.09,1.01.27l123.94,72.61c.63.37,1.01,1.05.99,1.78-.02.73-.43,1.39-1.08,1.72l-136.41,70.47c-.29.15-.6.22-.92.22Z" style="fill:#dbab3e; stroke-width:0px;"/><path d="m460.23,627.98l123.94,72.61-136.41,70.47-123.83-73.12,136.31-69.96m0-4c-.63,0-1.25.15-1.83.44l-136.31,69.96c-1.3.67-2.13,1.98-2.17,3.44-.04,1.46.71,2.82,1.96,3.56l123.83,73.12c.63.37,1.33.56,2.03.56.63,0,1.26-.15,1.84-.45l136.41-70.47c1.3-.67,2.12-1.99,2.16-3.45s-.72-2.82-1.98-3.56l-123.94-72.61c-.62-.37-1.32-.55-2.02-.55h0Z" style="fill:#26489e; stroke-width:0px;"/><g style="opacity:.68;"><path d="m447.76,773.06c-.35,0-.7-.09-1.02-.28l-123.83-73.12c-.59-.35-.96-.98-.98-1.67l-3.7-143c-.02-.73.36-1.4.98-1.77.31-.19.67-.28,1.02-.28s.7.09,1.01.27l124.2,72.8c.6.35.97.99.99,1.68l3.33,143.33c.02.73-.36,1.4-.99,1.77-.31.18-.66.27-1.01.27Z" style="fill:#feffff; stroke-width:0px;"/><path d="m320.22,554.94l124.2,72.8,3.33,143.33-123.83-73.12-3.7-143m0-4c-.7,0-1.41.19-2.03.56-1.25.74-2,2.1-1.97,3.55l3.7,143c.04,1.38.78,2.64,1.96,3.34l123.83,73.12c.63.37,1.33.56,2.03.56s1.4-.18,2.02-.55c1.25-.73,2.01-2.09,1.98-3.54l-3.33-143.33c-.03-1.39-.78-2.66-1.98-3.36l-124.2-72.8c-.62-.37-1.32-.55-2.02-.55h0Z" style="fill:#26489e; stroke-width:0px;"/></g><g style="opacity:.68;"><path d="m447.76,773.06c-.35,0-.71-.09-1.02-.28-.59-.35-.96-.98-.98-1.67l-3.33-143.33c-.02-.77.4-1.48,1.09-1.83l136.84-70.2c.29-.15.6-.22.91-.22.36,0,.71.09,1.03.28.59.35.96.99.97,1.68l2.9,143.06c.01.76-.4,1.47-1.08,1.82l-136.41,70.47c-.29.15-.6.22-.92.22Z" style="fill:#fff; stroke-width:0px;"/><path d="m581.27,557.53l2.9,143.06-136.41,70.47-3.33-143.33,136.84-70.2m0-4c-.63,0-1.25.15-1.83.44l-136.84,70.2c-1.36.7-2.21,2.12-2.17,3.65l3.33,143.33c.03,1.38.77,2.64,1.96,3.35.63.37,1.33.56,2.04.56.63,0,1.26-.15,1.84-.45l136.41-70.47c1.36-.7,2.19-2.11,2.16-3.63l-2.9-143.06c-.03-1.38-.76-2.65-1.95-3.35-.63-.38-1.34-.57-2.05-.57h0Z" style="fill:#26489e; stroke-width:0px;"/></g><path d="m323.93,520.89c-.35,0-.71-.09-1.02-.28-.59-.35-.96-.98-.98-1.67l-3.7-143c-.02-.77.4-1.48,1.09-1.83l136.74-69.69c.29-.15.6-.22.91-.22.36,0,.71.09,1.03.28.59.35.96.98.97,1.67l3.27,142.74c.02.77-.4,1.48-1.09,1.83l-136.31,69.96c-.29.15-.6.22-.91.22Z" style="fill:#5b9cd4; stroke-width:0px;"/><path d="m456.96,306.2l3.27,142.74-136.31,69.96-3.7-143,136.74-69.69m0-4c-.62,0-1.24.14-1.82.44l-136.74,69.69c-1.37.7-2.22,2.13-2.18,3.67l3.7,143c.04,1.37.78,2.64,1.96,3.34.63.37,1.33.56,2.04.56.63,0,1.25-.15,1.83-.44l136.31-69.96c1.36-.7,2.21-2.12,2.17-3.65l-3.27-142.74c-.03-1.38-.77-2.64-1.95-3.34-.63-.38-1.34-.57-2.05-.57h0Z" style="fill:#26489e; stroke-width:0px;"/><path d="m584.17,523.54c-.35,0-.7-.09-1.01-.27l-123.94-72.61c-.6-.35-.97-.99-.99-1.68l-3.27-142.74c-.02-.72.36-1.4.98-1.77.31-.19.67-.28,1.02-.28s.69.09,1.01.27l124.31,72.29c.6.35.98.99.99,1.69l2.9,143.06c.01.72-.36,1.4-.99,1.77-.31.18-.66.27-1.01.27Z" style="fill:#5b9cd4; stroke-width:0px;"/><path d="m456.96,306.2l124.31,72.29,2.9,143.06-123.94-72.61-3.27-142.74m0-4c-.7,0-1.41.19-2.03.56-1.25.74-2,2.09-1.96,3.54l3.27,142.74c.03,1.39.78,2.66,1.98,3.36l123.94,72.61c.62.37,1.32.55,2.02.55s1.4-.18,2.02-.55c1.25-.73,2-2.08,1.98-3.53l-2.9-143.06c-.03-1.4-.78-2.68-1.99-3.38l-124.31-72.29c-.62-.36-1.32-.54-2.01-.54h0Z" style="fill:#26489e; stroke-width:0px;"/><path d="m447.76,594.01c-.35,0-.7-.09-1.02-.28l-123.83-73.12c-.63-.37-1-1.05-.98-1.78.02-.73.44-1.39,1.09-1.72l136.31-69.96c.29-.15.6-.22.91-.22.35,0,.7.09,1.01.27l123.94,72.61c.63.37,1.01,1.05.99,1.78-.02.73-.43,1.39-1.08,1.72l-136.41,70.47c-.29.15-.6.22-.92.22Z" style="fill:#dbab3e; stroke-width:0px;"/><path d="m460.23,448.93l123.94,72.61-136.41,70.47-123.83-73.12,136.31-69.96m0-4c-.63,0-1.25.15-1.83.44l-136.31,69.96c-1.3.67-2.13,1.98-2.17,3.44-.04,1.46.71,2.82,1.96,3.56l123.83,73.12c.63.37,1.33.56,2.03.56.63,0,1.26-.15,1.84-.45l136.41-70.47c1.3-.67,2.12-1.99,2.16-3.45s-.72-2.82-1.98-3.56l-123.94-72.61c-.62-.37-1.32-.55-2.02-.55h0Z" style="fill:#26489e; stroke-width:0px;"/><g style="opacity:.68;"><path d="m447.76,594.01c-.35,0-.7-.09-1.02-.28l-123.83-73.12c-.59-.35-.96-.98-.98-1.67l-3.7-143c-.02-.73.36-1.4.98-1.77.31-.19.67-.28,1.02-.28s.7.09,1.01.27l124.2,72.8c.6.35.97.99.99,1.68l3.33,143.33c.02.73-.36,1.4-.99,1.77-.31.18-.66.27-1.01.27Z" style="fill:#feffff; stroke-width:0px;"/><path d="m320.22,375.89l124.2,72.8,3.33,143.33-123.83-73.12-3.7-143m0-4c-.7,0-1.41.19-2.03.56-1.25.74-2,2.1-1.97,3.55l3.7,143c.04,1.38.78,2.64,1.96,3.34l123.83,73.12c.63.37,1.33.56,2.03.56s1.4-.18,2.02-.55c1.25-.73,2.01-2.09,1.98-3.54l-3.33-143.33c-.03-1.39-.78-2.66-1.98-3.36l-124.2-72.8c-.62-.37-1.32-.55-2.02-.55h0Z" style="fill:#26489e; stroke-width:0px;"/></g><g style="opacity:.68;"><path d="m447.76,594.01c-.35,0-.71-.09-1.02-.28-.59-.35-.96-.98-.98-1.67l-3.33-143.33c-.02-.77.4-1.48,1.09-1.83l136.84-70.2c.29-.15.6-.22.91-.22.36,0,.71.09,1.03.28.59.35.96.99.97,1.68l2.9,143.06c.01.76-.4,1.47-1.08,1.82l-136.41,70.47c-.29.15-.6.22-.92.22Z" style="fill:#feffff; stroke-width:0px;"/><path d="m581.27,378.48l2.9,143.06-136.41,70.47-3.33-143.33,136.84-70.2m0-4c-.63,0-1.25.15-1.83.44l-136.84,70.2c-1.36.7-2.21,2.12-2.17,3.65l3.33,143.33c.03,1.38.77,2.64,1.96,3.35.63.37,1.33.56,2.04.56.63,0,1.26-.15,1.84-.45l136.41-70.47c1.36-.7,2.19-2.11,2.16-3.63l-2.9-143.06c-.03-1.38-.76-2.65-1.95-3.35-.63-.38-1.34-.57-2.05-.57h0Z" style="fill:#26489e; stroke-width:0px;"/></g><path d="m481.22,789.64c-.35,0-.71-.09-1.02-.28-.59-.35-.96-.98-.98-1.67l-3.7-143c-.02-.77.4-1.48,1.09-1.83l136.74-69.69c.29-.15.6-.22.91-.22.36,0,.71.09,1.03.28.59.35.96.98.97,1.67l3.27,142.74c.02.77-.4,1.48-1.09,1.83l-136.31,69.96c-.29.15-.6.22-.91.22Z" style="fill:#5b9cd4; stroke-width:0px;"/><path d="m614.25,574.94l3.27,142.74-136.31,69.96-3.7-143,136.74-69.69m0-4c-.62,0-1.24.14-1.82.44l-136.74,69.69c-1.37.7-2.22,2.13-2.18,3.67l3.7,143c.04,1.37.78,2.64,1.96,3.34.63.37,1.33.56,2.04.56.63,0,1.25-.15,1.83-.44l136.31-69.96c1.36-.7,2.21-2.12,2.17-3.65l-3.27-142.74c-.03-1.38-.77-2.64-1.95-3.34-.63-.38-1.34-.57-2.05-.57h0Z" style="fill:#26489e; stroke-width:0px;"/><path d="m741.46,792.29c-.35,0-.7-.09-1.01-.27l-123.94-72.61c-.6-.35-.97-.99-.99-1.68l-3.27-142.74c-.02-.72.36-1.4.98-1.77.31-.19.67-.28,1.02-.28s.69.09,1.01.27l124.31,72.29c.6.35.98.99.99,1.69l2.9,143.06c.01.72-.36,1.4-.99,1.77-.31.18-.66.27-1.01.27Z" style="fill:#5b9cd4; stroke-width:0px;"/><path d="m614.25,574.94l124.31,72.29,2.9,143.06-123.94-72.61-3.27-142.74m0-4c-.7,0-1.41.19-2.03.56-1.25.74-2,2.09-1.96,3.54l3.27,142.74c.03,1.39.78,2.66,1.98,3.36l123.94,72.61c.62.37,1.32.55,2.02.55s1.4-.18,2.02-.55c1.25-.73,2-2.08,1.98-3.53l-2.9-143.06c-.03-1.4-.78-2.68-1.99-3.38l-124.31-72.29c-.62-.36-1.32-.54-2.01-.54h0Z" style="fill:#26489e; stroke-width:0px;"/><path d="m605.05,862.76c-.35,0-.7-.09-1.02-.28l-123.83-73.12c-.63-.37-1-1.05-.98-1.78.02-.73.44-1.39,1.09-1.72l136.31-69.96c.29-.15.6-.22.91-.22.35,0,.7.09,1.01.27l123.94,72.61c.63.37,1.01,1.05.99,1.78-.02.73-.43,1.39-1.08,1.72l-136.41,70.47c-.29.15-.6.22-.92.22Z" style="fill:#dbab3e; stroke-width:0px;"/><path d="m617.53,717.68l123.94,72.61-136.41,70.47-123.83-73.12,136.31-69.96m0-4c-.63,0-1.25.15-1.83.44l-136.31,69.96c-1.3.67-2.13,1.98-2.17,3.44-.04,1.46.71,2.82,1.96,3.56l123.83,73.12c.63.37,1.33.56,2.03.56.63,0,1.26-.15,1.84-.45l136.41-70.47c1.3-.67,2.12-1.99,2.16-3.45.04-1.46-.72-2.82-1.98-3.56l-123.94-72.61c-.62-.37-1.32-.55-2.02-.55h0Z" style="fill:#26489e; stroke-width:0px;"/><g style="opacity:.68;"><path d="m605.05,862.76c-.35,0-.7-.09-1.02-.28l-123.83-73.12c-.59-.35-.96-.98-.98-1.67l-3.7-143c-.02-.73.36-1.4.98-1.77.31-.19.67-.28,1.02-.28s.7.09,1.01.27l124.2,72.8c.6.35.97.99.99,1.68l3.33,143.33c.02.73-.36,1.4-.99,1.77-.31.18-.66.27-1.01.27Z" style="fill:#feffff; stroke-width:0px;"/><path d="m477.52,644.63l124.2,72.8,3.33,143.33-123.83-73.12-3.7-143m0-4c-.7,0-1.41.19-2.03.56-1.25.74-2,2.1-1.97,3.55l3.7,143c.04,1.38.78,2.64,1.96,3.34l123.83,73.12c.63.37,1.33.56,2.03.56s1.4-.18,2.02-.55c1.25-.73,2.01-2.09,1.98-3.54l-3.33-143.33c-.03-1.39-.78-2.66-1.98-3.36l-124.2-72.8c-.62-.37-1.32-.55-2.02-.55h0Z" style="fill:#26489e; stroke-width:0px;"/></g><g style="opacity:.68;"><path d="m605.05,862.76c-.35,0-.71-.09-1.02-.28-.59-.35-.96-.98-.98-1.67l-3.33-143.33c-.02-.77.4-1.48,1.09-1.83l136.84-70.2c.29-.15.6-.22.91-.22.36,0,.71.09,1.03.28.59.35.96.99.97,1.68l2.9,143.06c.01.76-.4,1.47-1.08,1.82l-136.41,70.47c-.29.15-.6.22-.92.22Z" style="fill:#feffff; stroke-width:0px;"/><path d="m738.56,647.23l2.9,143.06-136.41,70.47-3.33-143.33,136.84-70.2m0-4c-.63,0-1.25.15-1.83.44l-136.84,70.2c-1.36.7-2.21,2.12-2.17,3.65l3.33,143.33c.03,1.38.77,2.64,1.96,3.35.63.37,1.33.56,2.04.56.63,0,1.26-.15,1.84-.45l136.41-70.47c1.36-.7,2.19-2.11,2.16-3.63l-2.9-143.06c-.03-1.38-.76-2.65-1.95-3.35-.63-.38-1.34-.57-2.05-.57h0Z" style="fill:#26489e; stroke-width:0px;"/></g><path d="m481.22,610.59c-.35,0-.71-.09-1.02-.28-.59-.35-.96-.98-.98-1.67l-3.7-143c-.02-.77.4-1.48,1.09-1.83l136.74-69.69c.29-.15.6-.22.91-.22.36,0,.71.09,1.03.28.59.35.96.98.97,1.67l3.27,142.74c.02.77-.4,1.48-1.09,1.83l-136.31,69.96c-.29.15-.6.22-.91.22Z" style="fill:#5b9cd4; stroke-width:0px;"/><path d="m614.25,395.89l3.27,142.74-136.31,69.96-3.7-143,136.74-69.69m0-4c-.62,0-1.24.14-1.82.44l-136.74,69.69c-1.37.7-2.22,2.13-2.18,3.67l3.7,143c.04,1.37.78,2.64,1.96,3.34.63.37,1.33.56,2.04.56.63,0,1.25-.15,1.83-.44l136.31-69.96c1.36-.7,2.21-2.12,2.17-3.65l-3.27-142.74c-.03-1.38-.77-2.64-1.95-3.34-.63-.38-1.34-.57-2.05-.57h0Z" style="fill:#26489e; stroke-width:0px;"/><path d="m741.46,613.24c-.35,0-.7-.09-1.01-.27l-123.94-72.61c-.6-.35-.97-.99-.99-1.68l-3.27-142.74c-.02-.72.36-1.4.98-1.77.31-.19.67-.28,1.02-.28s.69.09,1.01.27l124.31,72.29c.6.35.98.99.99,1.69l2.9,143.06c.01.72-.36,1.4-.99,1.77-.31.18-.66.27-1.01.27Z" style="fill:#5b9cd4; stroke-width:0px;"/><path d="m614.25,395.89l124.31,72.29,2.9,143.06-123.94-72.61-3.27-142.74m0-4c-.7,0-1.41.19-2.03.56-1.25.74-2,2.09-1.96,3.54l3.27,142.74c.03,1.39.78,2.66,1.98,3.36l123.94,72.61c.62.37,1.32.55,2.02.55s1.4-.18,2.02-.55c1.25-.73,2-2.08,1.98-3.53l-2.9-143.06c-.03-1.4-.78-2.68-1.99-3.38l-124.31-72.29c-.62-.36-1.32-.54-2.01-.54h0Z" style="fill:#26489e; stroke-width:0px;"/><path d="m605.05,683.71c-.35,0-.7-.09-1.02-.28l-123.83-73.12c-.63-.37-1-1.05-.98-1.78.02-.73.44-1.39,1.09-1.72l136.31-69.96c.29-.15.6-.22.91-.22.35,0,.7.09,1.01.27l123.94,72.61c.63.37,1.01,1.05.99,1.78-.02.73-.43,1.39-1.08,1.72l-136.41,70.47c-.29.15-.6.22-.92.22Z" style="fill:#dbab3e; stroke-width:0px;"/><path d="m617.53,538.63l123.94,72.61-136.41,70.47-123.83-73.12,136.31-69.96m0-4c-.63,0-1.25.15-1.83.44l-136.31,69.96c-1.3.67-2.13,1.98-2.17,3.44-.04,1.46.71,2.82,1.96,3.56l123.83,73.12c.63.37,1.33.56,2.03.56.63,0,1.26-.15,1.84-.45l136.41-70.47c1.3-.67,2.12-1.99,2.16-3.45.04-1.46-.72-2.82-1.98-3.56l-123.94-72.61c-.62-.37-1.32-.55-2.02-.55h0Z" style="fill:#26489e; stroke-width:0px;"/><g style="opacity:.68;"><path d="m605.05,683.71c-.35,0-.7-.09-1.02-.28l-123.83-73.12c-.59-.35-.96-.98-.98-1.67l-3.7-143c-.02-.73.36-1.4.98-1.77.31-.19.67-.28,1.02-.28s.7.09,1.01.27l124.2,72.8c.6.35.97.99.99,1.68l3.33,143.33c.02.73-.36,1.4-.99,1.77-.31.18-.66.27-1.01.27Z" style="fill:#feffff; stroke-width:0px;"/><path d="m477.52,465.58l124.2,72.8,3.33,143.33-123.83-73.12-3.7-143m0-4c-.7,0-1.41.19-2.03.56-1.25.74-2,2.1-1.97,3.55l3.7,143c.04,1.38.78,2.64,1.96,3.34l123.83,73.12c.63.37,1.33.56,2.03.56s1.4-.18,2.02-.55c1.25-.73,2.01-2.09,1.98-3.54l-3.33-143.33c-.03-1.39-.78-2.66-1.98-3.36l-124.2-72.8c-.62-.37-1.32-.55-2.02-.55h0Z" style="fill:#26489e; stroke-width:0px;"/></g><g style="opacity:.68;"><path d="m605.05,683.71c-.35,0-.71-.09-1.02-.28-.59-.35-.96-.98-.98-1.67l-3.33-143.33c-.02-.77.4-1.48,1.09-1.83l136.84-70.2c.29-.15.6-.22.91-.22.36,0,.71.09,1.03.28.59.35.96.99.97,1.68l2.9,143.06c.01.76-.4,1.47-1.08,1.82l-136.41,70.47c-.29.15-.6.22-.92.22Z" style="fill:#feffff; stroke-width:0px;"/><path d="m738.56,468.18l2.9,143.06-136.41,70.47-3.33-143.33,136.84-70.2m0-4c-.63,0-1.25.15-1.83.44l-136.84,70.2c-1.36.7-2.21,2.12-2.17,3.65l3.33,143.33c.03,1.38.77,2.64,1.96,3.35.63.37,1.33.56,2.04.56.63,0,1.26-.15,1.84-.45l136.41-70.47c1.36-.7,2.19-2.11,2.16-3.63l-2.9-143.06c-.03-1.38-.76-2.65-1.95-3.35-.63-.38-1.34-.57-2.05-.57h0Z" style="fill:#26489e; stroke-width:0px;"/></g><path d="m323.93,342.75c-.35,0-.71-.09-1.02-.28-.59-.35-.96-.98-.98-1.67l-3.7-143c-.02-.77.4-1.48,1.09-1.83l136.74-69.69c.29-.15.6-.22.91-.22.36,0,.71.09,1.03.28.59.35.96.98.97,1.67l3.27,142.74c.02.77-.4,1.48-1.09,1.83l-136.31,69.96c-.29.15-.6.22-.91.22Z" style="fill:#5b9cd4; stroke-width:0px;"/><path d="m456.96,128.06l3.27,142.74-136.31,69.96-3.7-143,136.74-69.69m0-4c-.62,0-1.24.14-1.82.44l-136.74,69.69c-1.37.7-2.22,2.13-2.18,3.67l3.7,143c.04,1.37.78,2.64,1.96,3.34.63.37,1.33.56,2.04.56.63,0,1.25-.15,1.83-.44l136.31-69.96c1.36-.7,2.21-2.12,2.17-3.65l-3.27-142.74c-.03-1.38-.77-2.64-1.95-3.34-.63-.38-1.34-.57-2.05-.57h0Z" style="fill:#26489e; stroke-width:0px;"/><path d="m584.17,345.4c-.35,0-.7-.09-1.01-.27l-123.94-72.61c-.6-.35-.97-.99-.99-1.68l-3.27-142.74c-.02-.72.36-1.4.98-1.77.31-.19.67-.28,1.02-.28s.69.09,1.01.27l124.31,72.29c.6.35.98.99.99,1.69l2.9,143.06c.01.72-.36,1.4-.99,1.77-.31.18-.66.27-1.01.27Z" style="fill:#5b9cd4; stroke-width:0px;"/><path d="m456.96,128.06l124.31,72.29,2.9,143.06-123.94-72.61-3.27-142.74m0-4c-.7,0-1.41.19-2.03.56-1.25.74-2,2.09-1.96,3.54l3.27,142.74c.03,1.39.78,2.66,1.98,3.36l123.94,72.61c.62.37,1.32.55,2.02.55s1.4-.18,2.02-.55c1.25-.73,2-2.08,1.98-3.53l-2.9-143.06c-.03-1.4-.78-2.68-1.99-3.38l-124.31-72.29c-.62-.36-1.32-.54-2.01-.54h0Z" style="fill:#26489e; stroke-width:0px;"/><path d="m447.76,415.87c-.35,0-.7-.09-1.02-.28l-123.83-73.12c-.63-.37-1-1.05-.98-1.78.02-.73.44-1.39,1.09-1.72l136.31-69.96c.29-.15.6-.22.91-.22.35,0,.7.09,1.01.27l123.94,72.61c.63.37,1.01,1.05.99,1.78-.02.73-.43,1.39-1.08,1.72l-136.41,70.47c-.29.15-.6.22-.92.22Z" style="fill:#dbab3e; stroke-width:0px;"/><path d="m460.23,270.79l123.94,72.61-136.41,70.47-123.83-73.12,136.31-69.96m0-4c-.63,0-1.25.15-1.83.44l-136.31,69.96c-1.3.67-2.13,1.98-2.17,3.44-.04,1.46.71,2.82,1.96,3.56l123.83,73.12c.63.37,1.33.56,2.03.56.63,0,1.26-.15,1.84-.45l136.41-70.47c1.3-.67,2.12-1.99,2.16-3.45s-.72-2.82-1.98-3.56l-123.94-72.61c-.62-.37-1.32-.55-2.02-.55h0Z" style="fill:#26489e; stroke-width:0px;"/><g style="opacity:.68;"><path d="m447.76,415.87c-.35,0-.7-.09-1.02-.28l-123.83-73.12c-.59-.35-.96-.98-.98-1.67l-3.7-143c-.02-.73.36-1.4.98-1.77.31-.19.67-.28,1.02-.28s.7.09,1.01.27l124.2,72.8c.6.35.97.99.99,1.68l3.33,143.33c.02.73-.36,1.4-.99,1.77-.31.18-.66.27-1.01.27Z" style="fill:#feffff; stroke-width:0px;"/><path d="m320.22,197.75l124.2,72.8,3.33,143.33-123.83-73.12-3.7-143m0-4c-.7,0-1.41.19-2.03.56-1.25.74-2,2.1-1.97,3.55l3.7,143c.04,1.38.78,2.64,1.96,3.34l123.83,73.12c.63.37,1.33.56,2.03.56s1.4-.18,2.02-.55c1.25-.73,2.01-2.09,1.98-3.54l-3.33-143.33c-.03-1.39-.78-2.66-1.98-3.36l-124.2-72.8c-.62-.37-1.32-.55-2.02-.55h0Z" style="fill:#26489e; stroke-width:0px;"/></g><g style="opacity:.68;"><path d="m447.76,415.87c-.35,0-.71-.09-1.02-.28-.59-.35-.96-.98-.98-1.67l-3.33-143.33c-.02-.77.4-1.48,1.09-1.83l136.84-70.2c.29-.15.6-.22.91-.22.36,0,.71.09,1.03.28.59.35.96.99.97,1.68l2.9,143.06c.01.76-.4,1.47-1.08,1.82l-136.41,70.47c-.29.15-.6.22-.92.22Z" style="fill:#feffff; stroke-width:0px;"/><path d="m581.27,200.34l2.9,143.06-136.41,70.47-3.33-143.33,136.84-70.2m0-4c-.63,0-1.25.15-1.83.44l-136.84,70.2c-1.36.7-2.21,2.12-2.17,3.65l3.33,143.33c.03,1.38.77,2.64,1.96,3.35.63.37,1.33.56,2.04.56.63,0,1.26-.15,1.84-.45l136.41-70.47c1.36-.7,2.19-2.11,2.16-3.63l-2.9-143.06c-.03-1.38-.76-2.65-1.95-3.35-.63-.38-1.34-.57-2.05-.57h0Z" style="fill:#26489e; stroke-width:0px;"/></g><g style="opacity:.8;"><path d="m481.22,435.48c-.35,0-.71-.09-1.02-.28-.59-.35-.96-.98-.98-1.67l-3.7-143c-.02-.77.4-1.48,1.09-1.83l136.74-69.69c.29-.15.6-.22.91-.22.36,0,.71.09,1.03.28.59.35.96.98.97,1.67l3.27,142.74c.02.77-.4,1.48-1.09,1.83l-136.31,69.96c-.29.15-.6.22-.91.22Z" style="fill:#ef7028; stroke-width:0px;"/><path d="m614.25,220.79l3.27,142.74-136.31,69.96-3.7-143,136.74-69.69m0-4c-.62,0-1.24.14-1.82.44l-136.74,69.69c-1.37.7-2.22,2.13-2.18,3.67l3.7,143c.04,1.37.78,2.64,1.96,3.34.63.37,1.33.56,2.04.56.63,0,1.25-.15,1.83-.44l136.31-69.96c1.36-.7,2.21-2.12,2.17-3.65l-3.27-142.74c-.03-1.38-.77-2.64-1.95-3.34-.63-.38-1.34-.57-2.05-.57h0Z" style="fill:#b31f24; stroke-width:0px;"/><path d="m741.46,438.13c-.35,0-.7-.09-1.01-.27l-123.94-72.61c-.6-.35-.97-.99-.99-1.68l-3.27-142.74c-.02-.72.36-1.4.98-1.77.31-.19.67-.28,1.02-.28s.69.09,1.01.27l124.31,72.29c.6.35.98.99.99,1.69l2.9,143.06c.01.72-.36,1.4-.99,1.77-.31.18-.66.27-1.01.27Z" style="fill:#ef7028; stroke-width:0px;"/><path d="m614.25,220.79l124.31,72.29,2.9,143.06-123.94-72.61-3.27-142.74m0-4c-.7,0-1.41.19-2.03.56-1.25.74-2,2.09-1.96,3.54l3.27,142.74c.03,1.39.78,2.66,1.98,3.36l123.94,72.61c.62.37,1.32.55,2.02.55s1.4-.18,2.02-.55c1.25-.73,2-2.08,1.98-3.53l-2.9-143.06c-.03-1.4-.78-2.68-1.99-3.38l-124.31-72.29c-.62-.36-1.32-.54-2.01-.54h0Z" style="fill:#b31f24; stroke-width:0px;"/><path d="m605.05,508.6c-.35,0-.7-.09-1.02-.28l-123.83-73.12c-.63-.37-1-1.05-.98-1.78.02-.73.44-1.39,1.09-1.72l136.31-69.96c.29-.15.6-.22.91-.22.35,0,.7.09,1.01.27l123.94,72.61c.63.37,1.01,1.05.99,1.78-.02.73-.43,1.39-1.08,1.72l-136.41,70.47c-.29.15-.6.22-.92.22Z" style="fill:#ea5624; stroke-width:0px;"/><path d="m617.53,363.53l123.94,72.61-136.41,70.47-123.83-73.12,136.31-69.96m0-4c-.63,0-1.25.15-1.83.44l-136.31,69.96c-1.3.67-2.13,1.98-2.17,3.44-.04,1.46.71,2.82,1.96,3.56l123.83,73.12c.63.37,1.33.56,2.03.56.63,0,1.26-.15,1.84-.45l136.41-70.47c1.3-.67,2.12-1.99,2.16-3.45.04-1.46-.72-2.82-1.98-3.56l-123.94-72.61c-.62-.37-1.32-.55-2.02-.55h0Z" style="fill:#8b1e1c; stroke-width:0px;"/><path d="m605.05,508.6c-.35,0-.7-.09-1.02-.28l-123.83-73.12c-.59-.35-.96-.98-.98-1.67l-3.7-143c-.02-.73.36-1.4.98-1.77.31-.19.67-.28,1.02-.28s.7.09,1.01.27l124.2,72.8c.6.35.97.99.99,1.68l3.33,143.33c.02.73-.36,1.4-.99,1.77-.31.18-.66.27-1.01.27Z" style="fill:#d55727; stroke-width:0px;"/><path d="m477.52,290.48l124.2,72.8,3.33,143.33-123.83-73.12-3.7-143m0-4c-.7,0-1.41.19-2.03.56-1.25.74-2,2.1-1.97,3.55l3.7,143c.04,1.38.78,2.64,1.96,3.34l123.83,73.12c.63.37,1.33.56,2.03.56s1.4-.18,2.02-.55c1.25-.73,2.01-2.09,1.98-3.54l-3.33-143.33c-.03-1.39-.78-2.66-1.98-3.36l-124.2-72.8c-.62-.37-1.32-.55-2.02-.55h0Z" style="fill:#b31f24; stroke-width:0px;"/><path d="m605.05,508.6c-.35,0-.71-.09-1.02-.28-.59-.35-.96-.98-.98-1.67l-3.33-143.33c-.02-.77.4-1.48,1.09-1.83l136.84-70.2c.29-.15.6-.22.91-.22.36,0,.71.09,1.03.28.59.35.96.99.97,1.68l2.9,143.06c.01.76-.4,1.47-1.08,1.82l-136.41,70.47c-.29.15-.6.22-.92.22Z" style="fill:#d55727; stroke-width:0px;"/><path d="m738.56,293.08l2.9,143.06-136.41,70.47-3.33-143.33,136.84-70.2m0-4c-.63,0-1.25.15-1.83.44l-136.84,70.2c-1.36.7-2.21,2.12-2.17,3.65l3.33,143.33c.03,1.38.77,2.64,1.96,3.35.63.37,1.33.56,2.04.56.63,0,1.26-.15,1.84-.45l136.41-70.47c1.36-.7,2.19-2.11,2.16-3.63l-2.9-143.06c-.03-1.38-.76-2.65-1.95-3.35-.63-.38-1.34-.57-2.05-.57h0Z" style="fill:#b31f24; stroke-width:0px;"/></g><g style="opacity:.8;"><path d="m162.24,253.94c-.35,0-.71-.09-1.02-.28-.59-.35-.96-.98-.98-1.67l-3.7-143c-.02-.77.4-1.48,1.09-1.83l136.74-69.69c.29-.15.6-.22.91-.22.36,0,.71.09,1.03.28.59.35.96.98.97,1.67l3.27,142.74c.02.77-.4,1.48-1.09,1.83l-136.31,69.96c-.29.15-.6.22-.91.22Z" style="fill:#60c3a7; stroke-width:0px;"/><path d="m295.28,39.24l3.27,142.74-136.31,69.96-3.7-143,136.74-69.69m0-4c-.62,0-1.24.14-1.82.44l-136.74,69.69c-1.37.7-2.22,2.13-2.18,3.67l3.7,143c.04,1.37.78,2.64,1.96,3.34.63.37,1.33.56,2.04.56.63,0,1.25-.15,1.83-.44l136.31-69.96c1.36-.7,2.21-2.12,2.17-3.65l-3.27-142.74c-.03-1.38-.77-2.64-1.95-3.34-.63-.38-1.34-.57-2.05-.57h0Z" style="fill:#0b5e64; stroke-width:0px;"/><path d="m422.48,256.59c-.35,0-.7-.09-1.01-.27l-123.94-72.61c-.6-.35-.97-.99-.99-1.68l-3.27-142.74c-.02-.72.36-1.4.98-1.77.31-.19.67-.28,1.02-.28s.69.09,1.01.27l124.31,72.29c.6.35.98.99,1,1.69l2.9,143.06c.01.72-.36,1.4-.99,1.77-.31.18-.66.27-1.01.27Z" style="fill:#60c3a7; stroke-width:0px;"/><path d="m295.28,39.24l124.31,72.29,2.9,143.06-123.94-72.61-3.27-142.74m0-4c-.7,0-1.41.19-2.03.56-1.25.74-2,2.09-1.96,3.54l3.27,142.74c.03,1.39.78,2.66,1.98,3.36l123.94,72.61c.62.37,1.32.55,2.02.55s1.4-.18,2.02-.55c1.25-.73,2-2.08,1.98-3.53l-2.9-143.06c-.03-1.4-.78-2.68-1.99-3.38l-124.31-72.29c-.62-.36-1.32-.54-2.01-.54h0Z" style="fill:#0b5e64; stroke-width:0px;"/><path d="m286.08,327.06c-.35,0-.7-.09-1.02-.28l-123.83-73.12c-.63-.37-1-1.05-.98-1.78.02-.73.44-1.39,1.09-1.72l136.31-69.96c.29-.15.6-.22.91-.22.35,0,.7.09,1.01.27l123.94,72.61c.63.37,1.01,1.05.99,1.78-.02.73-.43,1.39-1.08,1.72l-136.41,70.47c-.29.15-.6.22-.92.22Z" style="fill:#7cc242; stroke-width:0px;"/><path d="m298.55,181.98l123.94,72.61-136.41,70.47-123.83-73.12,136.31-69.96m0-4c-.63,0-1.25.15-1.83.44l-136.31,69.96c-1.3.67-2.13,1.98-2.17,3.44-.04,1.46.71,2.82,1.96,3.56l123.83,73.12c.63.37,1.33.56,2.03.56.63,0,1.26-.15,1.84-.45l136.41-70.47c1.3-.67,2.12-1.99,2.16-3.45s-.72-2.82-1.98-3.56l-123.94-72.61c-.62-.37-1.32-.55-2.02-.55h0Z" style="fill:#878d36; stroke-width:0px;"/><path d="m286.08,327.06c-.35,0-.7-.09-1.02-.28l-123.83-73.12c-.59-.35-.96-.98-.98-1.67l-3.7-143c-.02-.73.36-1.4.98-1.77.31-.19.67-.28,1.02-.28s.7.09,1.01.27l124.2,72.8c.6.35.97.99.99,1.68l3.33,143.33c.02.73-.36,1.4-.99,1.77-.31.18-.66.27-1.01.27Z" style="fill:#4dbe99; stroke-width:0px;"/><path d="m158.54,108.93l124.2,72.8,3.33,143.33-123.83-73.12-3.7-143m0-4c-.7,0-1.41.19-2.03.56-1.25.74-2,2.1-1.97,3.55l3.7,143c.04,1.38.78,2.64,1.96,3.34l123.83,73.12c.63.37,1.33.56,2.03.56s1.4-.18,2.02-.55c1.25-.73,2.01-2.09,1.98-3.54l-3.33-143.33c-.03-1.39-.78-2.66-1.98-3.36l-124.2-72.8c-.62-.37-1.32-.55-2.02-.55h0Z" style="fill:#0b5e64; stroke-width:0px;"/><path d="m286.08,327.06c-.35,0-.71-.09-1.02-.28-.59-.35-.96-.98-.98-1.67l-3.33-143.33c-.02-.77.4-1.48,1.09-1.83l136.84-70.2c.29-.15.6-.22.91-.22.36,0,.71.09,1.03.28.59.35.96.99.97,1.68l2.9,143.06c.01.76-.4,1.47-1.08,1.82l-136.41,70.47c-.29.15-.6.22-.92.22Z" style="fill:#4dbe99; stroke-width:0px;"/><path d="m419.58,111.53l2.9,143.06-136.41,70.47-3.33-143.33,136.84-70.2m0-4c-.63,0-1.25.15-1.83.44l-136.84,70.2c-1.36.7-2.21,2.12-2.17,3.65l3.33,143.33c.03,1.38.77,2.64,1.96,3.35.63.37,1.33.56,2.04.56.63,0,1.26-.15,1.84-.45l136.41-70.47c1.36-.7,2.19-2.11,2.16-3.63l-2.9-143.06c-.03-1.38-.76-2.65-1.95-3.35-.63-.38-1.34-.57-2.05-.57h0Z" style="fill:#0b5e64; stroke-width:0px;"/></g></svg>